<?xml version="1.0" standalone="no"?>
<!DOCTYPE svg PUBLIC "-//W3C//DTD SVG 1.1//EN" "http://www.w3.org/Graphics/SVG/1.1/DTD/svg11.dtd" >
<svg xmlns="http://www.w3.org/2000/svg">
<metadata>Generated by IcoMoon</metadata>
<defs>
<font id="icomoon" horiz-adv-x="1024">
<font-face units-per-em="1024" ascent="960" descent="-64" />
<missing-glyph horiz-adv-x="1024" />
<glyph unicode="&#x20;" horiz-adv-x="512" d="" />
<glyph unicode="&#xe600;" glyph-name="file-add" d="M213.333 960h426.667l298.667-298.667v-597.333q0-53-37.5-90.5t-90.5-37.5h-597.333q-53 0-90.5 37.5t-37.5 90.5v768q0 53 37.5 90.5t90.5 37.5zM512 490.667q17.667 0 30.167-12.5t12.5-30.167v-85.333h85.333q17.667 0 30.167-12.5t12.5-30.167-12.5-30.167-30.167-12.5h-85.333v-85.333q0-17.667-12.5-30.167t-30.167-12.5-30.167 12.5-12.5 30.167v85.333h-85.333q-17.667 0-30.167 12.5t-12.5 30.167 12.5 30.167 30.167 12.5h85.333v85.333q0 17.667 12.5 30.167t30.167 12.5zM554.667 576v298.667h-341.333q-18 0-30.333-12.333t-12.333-30.333v-768q0-18 12.333-30.333t30.333-12.333h597.333q18 0 30.333 12.333t12.333 30.333v512h-298.667zM818 661.333l-178 178v-178h178z" />
<glyph unicode="&#xe601;" glyph-name="shift1" d="M706.181 914.034h-388.362c-23.301 0-38.836-15.534-38.836-38.836v-427.198h-155.344c-15.534 0-31.069-7.767-38.836-23.301s0-31.069 7.767-38.836l388.362-388.362c15.534-15.534 38.836-15.534 54.371 0l388.362 388.362c15.534 7.767 15.534 23.301 15.534 38.836s-23.301 23.301-38.836 23.301h-155.344v427.198c0 23.301-15.534 38.836-38.836 38.836v0zM356.656 836.362h310.689v-427.198c0-23.301 15.534-38.836 38.836-38.836h100.974l-295.154-295.154-295.154 295.154h100.974c23.301 0 38.836 15.534 38.836 38.836v427.198z" />
<glyph unicode="&#xe602;" glyph-name="more" d="M67.743 781.193v-111.065h905.602v111.065h-905.602zM67.743 217.328h905.602v111.065h-905.602v-111.065zM640.153 550.521h-572.406v-111.065h563.865v111.065z" />
<glyph unicode="&#xe603;" glyph-name="export-outline" d="M995.796 562.126c-2.123 2.123-209.973 212.098-309.757 318.249-21.748 21.438-51.73 33.658-82.125 33.658-61.205 0-110.969-46.397-110.969-103.563h-414.253c-28.636 0-51.781-23.198-51.781-51.781v-724.941c0-28.583 23.146-51.781 51.781-51.781h724.941c28.636 0 51.781 23.198 51.781 51.781v313.020c74.255 75.653 139.189 141.311 140.379 142.451 20.039 20.194 20.039 52.715 0 72.909zM610.956 243.93c-1.14-1.398-3.365-3.055-7.043-3.055-3.83 0-6.266 1.19-7.457 2.071v205.055h-51.781c-91.706-1.761-172.743-35.211-246.118-101.388 22.267 114.695 82.851 256.733 246.118 256.733h51.781v204.951c1.451 1.088 3.676 2.174 7.457 2.174 4.66 0 7.87-2.589 7.974-2.589 74.358-78.967 209.767-216.81 274.286-282.209-13.102-13.308-224.836-228.978-275.218-281.743zM130.475 85.529v621.378h414.253c0-18.020 0-35.988 0-51.781-241.302 0-310.689-252.227-310.689-440.144v-25.89c87.563 133.493 186.414 204.692 310.689 207.126 0-54.112 0-146.957 0-155.344 0-28.531 26.511-51.781 59.186-51.781 18.848 0 35.005 8.18 45.724 20.246 27.909 29.257 64.313 66.85 102.32 105.79v-229.599h-621.482z" />
<glyph unicode="&#xe604;" glyph-name="iconfont-xiangxia" d="M185.6 649.6l-38.4-38.4 364.8-364.8 364.8 364.8-38.4 38.4-326.4-326.4-326.4 326.4z" />
<glyph unicode="&#xe605;" glyph-name="write" d="M961.826 319.498c-35.515 0-64.251-28.768-64.251-64.251v-160.627c0-17.741-14.4-32.125-32.125-32.125h-706.885c-17.758 0-32.125 14.384-32.125 32.125v706.761c0 17.741 14.368 32.125 32.125 32.125h160.627c35.515 0 64.283 28.768 64.283 64.251s-28.77 64.251-64.283 64.251h-257.005c-35.515 0-64.283-28.768-64.283-64.251v-899.514c0-35.483 28.768-64.251 64.283-64.251h899.638c35.515 0 64.251 28.768 64.251 64.251v257.005c0 35.483-28.737 64.251-64.251 64.251zM779.866 807.638l91.827-91.842-382.179-396.299h-106.038v106.025l396.39 382.116zM780.682 962.007c-16.439 0-32.82-6.258-45.37-18.778l-480.37-463.105v-289.13h289.191l463.185 480.283c25.036 25.036 25.036 65.617 0 90.65l-181.333 181.302c-12.486 12.518-28.926 18.778-45.303 18.778v0z" />
<glyph unicode="&#xe606;" glyph-name="cancel" d="M512 870.4c-233.6 0-419.2-185.6-419.2-419.2s185.6-422.4 419.2-422.4 422.4 188.8 422.4 422.4-192 419.2-422.4 419.2zM867.2 451.2c0-80-25.6-150.4-67.2-208l-534.4 464c64 64 153.6 99.2 246.4 99.2 195.2 3.2 355.2-156.8 355.2-355.2zM153.6 451.2c0 80 25.6 153.6 67.2 211.2l537.6-464c-64-64-153.6-99.2-249.6-99.2-195.2-3.2-355.2 156.8-355.2 352z" />
<glyph unicode="&#xe607;" glyph-name="task" d="M651.438 704.75l-193.25-207.25-88.564 94.938-81.624-87.562 173.562-184.688 274.314 294.062zM960 960h-896c-35.376 0-64-28.624-64-64v-896c0-35.376 28.624-64 64-64h896c35.376 0 64 28.624 64 64v896c0 35.376-28.624 64-64 64zM896 256h-192v-192h-384v192h-192v576h768v-576z" />
<glyph unicode="&#xe608;" glyph-name="grid" d="M384 384h-320c-35.376 0-64-28.624-64-64v-320c0-35.376 28.624-64 64-64h320c35.376 0 64 28.624 64 64v320c0 35.376-28.624 64-64 64zM320 64h-192v192h192v-192zM384 960h-320c-35.376 0-64-28.624-64-64v-320c0-35.376 28.624-64 64-64h320c35.376 0 64 28.624 64 64v320c0 35.376-28.624 64-64 64zM320 640h-192v192h192v-192zM960 384h-320c-35.376 0-64-28.624-64-64v-320c0-35.376 28.624-64 64-64h320c35.376 0 64 28.624 64 64v320c0 35.376-28.624 64-64 64zM896 64h-192v192h192v-192zM960 960h-320c-35.376 0-64-28.624-64-64v-320c0-35.376 28.624-64 64-64h320c35.376 0 64 28.624 64 64v320c0 35.376-28.624 64-64 64zM896 640h-192v192h192v-192z" />
<glyph unicode="&#xe609;" glyph-name="inbox" d="M960 960h-896c-35.376 0-64-28.624-64-64v-896c0-35.376 28.624-64 64-64h896c35.376 0 64 28.624 64 64v896c0 35.376-28.624 64-64 64zM896 256h-192v-192h-384v192h-192v576h768v-576zM256 512h512v-128h-512zM256 704h512v-128h-512z" />
<glyph unicode="&#xe60a;" glyph-name="iconfont-xiangshang" d="M838.116 227.221l39.584 39.584-365.721 365.646-365.679-365.646 39.583-39.584 326.12 326.127z" />
<glyph unicode="&#xe60b;" glyph-name="calendar" d="M704 448h-64v-128h64v128zM576 448h-64v-128h64v128zM704 640h-64v-128h64v128zM832 448h-64v-128h64v128zM576 256h-64v-128h64v128zM768 960h-64v-128h64v128zM256 960h-64v-128h64v128zM832 640h-64v-128h64v128zM576 640h-64v-128h64v128zM320 256h-64v-128h64v128zM192 448h-64v-128h64v128zM320 448h-64v-128h64v128zM832 896v-128h-192v128h-320v-128h-192v128h-128v-896h960v896h-128zM896 64h-832v640h832v-640zM192 256h-64v-128h64v128zM448 640h-64v-128h64v128zM448 256h-64v-128h64v128zM320 640h-64v-128h64v128zM448 448h-64v-128h64v128zM704 256h-64v-128h64v128z" />
<glyph unicode="&#xe60c;" glyph-name="file-text" horiz-adv-x="768" d="M448 704h-320v-64h320v64zM576 896h-576v-896h768v704l-192 192zM704 64h-640v768h448l192-192v-576zM128 192h512v64h-512v-64zM128 320h512v64h-512v-64zM128 448h512v64h-512v-64z" />
<glyph unicode="&#xe60d;" glyph-name="book-alt2" d="M512 768c0 0-128 128-512 128v-768c388 0 512-128 512-128s124 128 512 128v768c-384 0-512-128-512-128zM128 768c162.688-13.632 262.496-51.264 320-81.76v-515.488c-57.504 30.368-157.312 68-320 81.76v515.488zM896 252.512c-162.752-13.76-262.496-51.328-320-81.76v515.488c57.504 30.496 157.248 68.128 320 81.76v-515.488z" />
<glyph unicode="&#xe60e;" glyph-name="transfer" horiz-adv-x="1022" d="M1023.936 192h-768.192v-128l-255.744 192 255.744 192v-128h768.192zM0 576h767.936v-128l256 192-256 192v-128h-767.936z" />
<glyph unicode="&#xe60f;" glyph-name="spin" horiz-adv-x="896" d="M764.256 765.248l-90.24-90.624c60.48-60.512 93.984-140.992 93.984-226.624 0-176.512-143.488-320-320-320v64l-128-128 128-128v64c247.008 0 448 200.992 448 448 0 119.872-46.752 232.512-131.744 317.248zM576 832l-128 128v-64c-247.008 0-448-200.992-448-448 0-119.872 46.752-232.512 131.744-317.248l90.24 90.624c-60.48 60.512-93.984 140.992-93.984 226.624 0 176.512 143.488 320 320 320v-64l128 128z" />
<glyph unicode="&#xe610;" glyph-name="task012" d="M556.8 755.2v-364.8h-339.2v-448h800v812.8h-460.8zM960 96h-89.6v-89.6h-64v89.6h-89.6v64h89.6v89.6h64v-89.6h89.6v-64zM492.8 960h-492.8v-499.2h492.8v499.2zM409.6 544h-326.4v332.8h332.8v-332.8z" />
<glyph unicode="&#xe611;" glyph-name="locked" d="M928-64h-832c-17.664 0-32 14.272-32 32v512c0 17.728 14.336 32 32 32h96v128c0 176.704 143.296 320 320 320s320-143.296 320-320v-128h96c17.728 0 32-14.272 32-32v-512c0-17.728-14.272-32-32-32zM704 656c0 97.216-86.016 176-192 176s-192-78.784-192-176v-144h384v144z" />
<glyph unicode="&#xe612;" glyph-name="arrow-back-outline" d="M907.694 31.152c-90.639 138.084-202.652 181.442-340.46 192.434v-79.371c0-29.494-11.489-57.222-32.368-78.1-41.757-41.757-114.721-41.482-155.924-0.275l-347.584 342.834c-10.548 10.439-16.46 24.524-16.46 39.38s5.909 28.942 16.46 39.326l347.309 342.613c41.647 41.701 114.5 41.757 156.256-0.055 20.822-20.878 32.311-48.606 32.311-78.1v-94.118c255.123-51.534 441.87-276.002 441.87-541.069v-55.233c0-24.413-16.018-45.955-39.437-52.914-5.246-1.491-10.494-2.319-15.798-2.319-18.283 0-35.682 9.114-46.175 24.965zM513.269 336.925c121.901-3.092 256.174-21.762 373.268-117.15-42.42 177.632-192.047 314.942-380.725 335.82-27.838 3.092-49.047 2.873-49.047 2.873v193.151l-307.983-303.564 307.983-303.785v193.263c0 0 40.762-0.551 56.505-0.607z" />
<glyph unicode="&#xe613;" glyph-name="cog" d="M1024 541.091v-186.182l-114.176-38.028c-6.516-19.735-14.895-38.447-24.111-56.785l54.132-108.311-131.677-131.631-108.404 54.225c-18.246-9.169-36.957-17.548-56.599-24.017l-38.074-114.362h-186.182l-38.121 114.362c-19.642 6.47-38.353 14.801-56.553 24.017l-108.451-54.225-131.677 131.631 54.179 108.311c-9.216 18.339-17.594 37.050-24.111 56.785l-114.176 38.028v186.182l114.176 38.028c6.516 19.735 14.895 38.447 24.111 56.785l-54.132 108.311 131.677 131.631 108.451-54.225c18.246 9.169 36.911 17.548 56.553 24.017l38.074 114.362h186.182l38.074-114.362c19.642-6.47 38.353-14.801 56.599-24.017l108.404 54.225 131.677-131.631-54.132-108.311c9.169-18.339 17.594-37.050 24.111-56.785l114.176-38.028zM833.443 495.616c-8.052 54.132-29.556 103.75-60.695 145.594l51.852 86.528-32.861 32.954-86.575-51.945c-41.891 30.953-91.369 52.271-145.455 60.276l-24.436 97.885h-46.545l-24.483-97.932c-54.039-7.959-103.517-29.277-145.408-60.23l-86.575 51.945-32.908-32.908 51.898-86.528c-31.185-41.891-52.643-91.462-60.695-145.641l-97.466-24.343v-46.545l97.466-24.343c8.006-54.132 29.51-103.75 60.649-145.594l-51.898-86.528 32.908-32.908 86.575 51.945c41.844-30.953 91.369-52.271 145.408-60.276l24.529-97.932h46.545l24.436 97.932c54.086 8.006 103.564 29.324 145.455 60.276l86.528-51.945 32.908 32.908-51.852 86.528c31.139 41.844 52.643 91.462 60.695 145.594l97.466 24.343v46.545l-97.466 24.343zM512 308.364c-77.126 0-139.636 62.511-139.636 139.636s62.511 139.636 139.636 139.636c77.079 0 139.636-62.511 139.636-139.636s-62.557-139.636-139.636-139.636zM512 494.545c-25.693 0-46.545-20.806-46.545-46.545s20.852-46.545 46.545-46.545c25.74 0 46.545 20.806 46.545 46.545s-20.806 46.545-46.545 46.545z" />
<glyph unicode="&#xe614;" glyph-name="users" horiz-adv-x="1214" d="M1213.021 29.091c0 0 0-93.091-93.091-93.091s-575.488 0-651.636 0c-93.091 0-93.091 93.091-93.091 93.091s-49.478 356.911 262.935 445.626c-46.825 51.107-76.753 124.090-76.753 206.010 0 154.205 104.215 279.273 232.727 279.273s232.727-125.068 232.727-279.273c0-81.92-30.022-154.903-76.8-206.010 312.46-88.716 262.982-445.626 262.982-445.626zM794.112 866.909c0 0-139.636 0-139.636-186.182s139.636-186.182 139.636-186.182 139.636 0 139.636 186.182-139.636 186.182-139.636 186.182zM794.112 401.455c-372.364 0-325.818-372.364-325.818-372.364h651.636c0 0 46.545 372.364-325.818 372.364zM414.767 385.024c-13.964-17.548-25.926-36.492-36.817-56.18-26.484 10.659-58.042 17.594-97.28 17.594-247.808 0-216.855-253.905-216.855-253.905h257.629c0.279-21.551 2.467-42.729 5.911-63.441-109.475 0-233.612 0-263.54 0-61.952 0-61.952 63.441-61.952 63.441s-33.187 248.367 182.412 305.431c-27.788 34.769-45.382 83.921-45.382 138.892 0 105.146 63.488 190.417 141.731 190.417s141.731-85.271 141.731-190.417c0-55.017-17.594-104.169-45.382-138.892 13.591-3.584 26.159-7.959 37.795-12.94zM280.623 663.785c0 0-82.758 0-82.758-126.929 0-126.976 82.758-126.976 82.758-126.976s82.758 0 82.758 126.976c0.047 126.929-82.758 126.929-82.758 126.929z" />
<glyph unicode="&#xe615;" glyph-name="pencil" d="M930.909-46.545h-837.818c-51.386 0-93.091 41.705-93.091 93.091v837.818c0 51.386 41.705 93.091 93.091 93.091h698.182l-93.091-93.091h-605.091v-837.818h837.818v605.091l93.091 93.091v-698.182c0-51.386-41.705-93.091-93.091-93.091zM872.727 896l81.455 81.455c0 0 69.818 1.443 69.818-68.375l-82.106-82.292-69.167 69.213zM418.909 372.364v69.818l34.909 34.909 69.772-69.772-34.863-34.956h-69.818zM895.441 780.195l-348.625-349.556-69.725 69.725 349.091 349.091 69.26-69.26z" />
<glyph unicode="&#xe616;" glyph-name="floppy-o" d="M219.429 73.143h438.857v219.429h-438.857v-219.429zM731.429 73.143h73.143v512q0 8-5.714 22t-11.429 19.714l-160.571 160.571q-5.714 5.714-19.429 11.429t-22.286 5.714v-237.714q0-22.857-16-38.857t-38.857-16h-329.143q-22.857 0-38.857 16t-16 38.857v237.714h-73.143v-731.429h73.143v237.714q0 22.857 16 38.857t38.857 16h475.429q22.857 0 38.857-16t16-38.857v-237.714zM512 603.428v182.857q0 7.429-5.429 12.857t-12.857 5.429h-109.714q-7.429 0-12.857-5.429t-5.429-12.857v-182.857q0-7.429 5.429-12.857t12.857-5.429h109.714q7.429 0 12.857 5.429t5.429 12.857zM877.714 585.143v-530.286q0-22.857-16-38.857t-38.857-16h-768q-22.857 0-38.857 16t-16 38.857v768q0 22.857 16 38.857t38.857 16h530.286q22.857 0 50.286-11.429t43.429-27.429l160-160q16-16 27.429-43.429t11.429-50.286z" />
<glyph unicode="&#xe617;" glyph-name="unlocked" d="M465.455 168.727c0 25.706 20.839 46.545 46.545 46.545s46.545-20.839 46.545-46.545c0-25.706-20.839-46.545-46.545-46.545s-46.545 20.839-46.545 46.545zM418.909 308.364c0 51.413 41.678 93.091 93.091 93.091s93.091-41.678 93.091-93.091c0-51.413-41.678-93.091-93.091-93.091s-93.091 41.678-93.091 93.091zM884.364 587.636h-93.091v93.091c0 154.205-125.068 279.273-279.273 279.273-138.287 0-252.323-100.771-274.572-232.727h94.999c20.713 80.151 92.905 139.636 179.572 139.636 102.819 0 186.182-83.363 186.182-186.182v-93.091h-558.545c-51.386 0-93.091-41.705-93.091-93.091v-465.455c0-51.386 41.705-93.091 93.091-93.091h744.727c51.386 0 93.091 41.705 93.091 93.091v465.455c0 51.386-41.705 93.091-93.091 93.091zM884.364 29.091h-744.727v465.455h744.727v-465.455z" />
<glyph unicode="&#xe618;" glyph-name="circle-with-plus" d="M512 937.335c-270.241 0-489.335-219.094-489.335-489.335s219.094-489.335 489.335-489.335 489.335 219.094 489.335 489.335c0 270.241-219.094 489.335-489.335 489.335zM803.271 389.746h-233.017v-233.017h-116.509v233.017h-233.017v116.509h233.017v233.017h116.509v-233.017h233.017v-116.509z" />
<glyph unicode="&#xe619;" glyph-name="delete" d="M512 948.645c-276.545 0-500.645-224.164-500.645-500.645s224.101-500.645 500.645-500.645 500.645 224.164 500.645 500.645-224.101 500.645-500.645 500.645zM743.985 304.502c24.469-24.469 24.469-64.019 0-88.488-12.203-12.203-28.225-18.336-44.246-18.336s-32.040 6.135-44.246 18.336l-143.498 143.498-143.498-143.498c-12.203-12.203-28.225-18.336-44.246-18.336s-32.040 6.135-44.246 18.336c-24.469 24.469-24.469 64.019 0 88.488l143.498 143.498-143.498 143.498c-24.469 24.469-24.469 64.019 0 88.488s64.019 24.469 88.488 0l143.498-143.498 143.498 143.498c24.469 24.469 64.019 24.469 88.488 0s24.469-64.019 0-88.488l-143.498-143.498 143.498-143.498z" />
<glyph unicode="&#xe61a;" glyph-name="squared-plus" d="M819.2 870.4h-614.4c-56.32 0-102.4-46.080-102.4-102.4v-614.4c0-56.32 46.080-102.4 102.4-102.4h614.4c56.32 0 102.4 46.080 102.4 102.4v614.4c0 56.32-46.080 102.4-102.4 102.4zM768 409.6h-204.8v-204.8h-102.4v204.8h-204.8v102.4h204.8v204.8h102.4v-204.8h204.8v-102.4z" />
<glyph unicode="&#xe61b;" glyph-name="crop" d="M298 234h684v-84h-172v-172h-84v172h-428q-34 0-59 25t-25 59v428h-172v84h172v172h84v-684zM726 320v342h-342v84h342q34 0 59-25t25-59v-342h-84z" />
<glyph unicode="&#xe61c;" glyph-name="pencil2" d="M550.827 912.896l-375.424-670.080 1.92-0.981 18.987-301.397 275.072 136.619 1.749-0.981 375.424 670.037-297.728 166.784zM258.347 46.934l-2.603 150.997 136.491-76.501-133.888-74.496zM440.405 192.171l-148.821 83.413 229.419 409.472 148.907-83.371-229.504-409.515zM541.824 722.304l41.771 74.453 148.821-83.413-41.685-74.411-148.907 83.371z" />
<glyph unicode="&#xe61d;" glyph-name="plus" d="M512 853.334q17.667 0 30.167-12.5t12.5-30.167v-341.333h341.333q17.667 0 30.167-12.5t12.5-30.167-12.5-30.167-30.167-12.5h-341.333v-341.333q0-17.667-12.5-30.167t-30.167-12.5-30.167 12.5-12.5 30.167v341.333h-341.333q-17.667 0-30.167 12.5t-12.5 30.167 12.5 30.167 30.167 12.5h341.333v341.333q0 17.667 12.5 30.167t30.167 12.5z" />
<glyph unicode="&#xe61e;" glyph-name="file" d="M722.279 957.687h-593.534v-1019.369h425.838v85.169h-340.669v849.035h425.838v-127.753h170.335v-468.422h85.169v513.645l-172.975 167.694zM639.753 63.426l255.502 2.639v82.527h-255.502v-85.169z" />
<glyph unicode="&#xe61f;" glyph-name="inbox2" d="M750.469 788.669h-468.422l-281.054-383.254v-212.919c0-47.012 38.155-85.169 85.169-85.169h851.676c47.012 0 85.169 38.155 85.169 85.169v212.919l-272.538 383.254zM787.304 404.436l-87.383-127.837-365.708 0.852-93.769 127.495-173.996 1.022 241.151 339.564h417.32l238.469-339.607-176.084-1.49z" />
<glyph unicode="&#xe620;" glyph-name="people" d="M682 384.667q56 0 122-16t122-52 56-82v-106h-256v106q0 88-84 148 14 2 40 2zM342 384.667q56 0 122-16t121-52 55-82v-106h-598v106q0 46 56 82t122 52 122 16zM342 468.667q-52 0-90 38t-38 90 38 90 90 38 89-38 37-90-37-90-89-38zM682 468.667q-52 0-90 38t-38 90 38 90 90 38 90-38 38-90-38-90-90-38z" />
<glyph unicode="&#xe621;" glyph-name="file2" d="M722.937 959.28h-595.39v-1022.56h427.173v85.439h-341.735v851.692h427.173v-128.153h170.868v-469.887h85.433v515.252l-173.517 168.221zM811.021 190.373h-85.433v-85.439h-85.439v-85.433h85.439v-82.787h85.433v85.439h85.433v82.787h-85.433v85.439z" />
<glyph unicode="&#xe622;" glyph-name="server2" d="M746.666 736c0-29.44 23.894-53.334 53.334-53.334s53.334 23.894 53.334 53.334-23.894 53.334-53.334 53.334-53.334-23.894-53.334-53.334zM746.666 394.666c0-29.44 23.894-53.334 53.334-53.334s53.334 23.894 53.334 53.334-23.894 53.334-53.334 53.334-53.334-23.894-53.334-53.334zM0 256c0-47.146 38.186-85.334 85.334-85.334h362.666v-58.88c-10.454-7.040-19.414-16-26.454-26.454l-261.546 0.002c-29.44 0-53.334-23.894-53.334-53.334s23.894-53.334 53.334-53.334h261.546c17.28-25.814 46.506-42.666 79.786-42.666s62.506 16.854 79.786 42.666h282.882c29.44 0 53.334 23.894 53.334 53.334s-23.894 53.334-53.334 53.334h-282.88c-7.040 10.454-16 19.414-26.454 26.454v58.878h384c47.146 0 85.334 38.186 85.334 85.334v618.666c0 47.146-38.186 85.334-85.334 85.334h-853.332c-47.148 0-85.334-38.186-85.334-85.334v-618.666zM153.6 853.334h716.8c26.026 0 46.934-20.908 46.934-46.934v-140.8c0-26.026-20.906-46.934-46.934-46.934h-716.8c-26.026 0-46.934 20.908-46.934 46.934v140.8c0 26.026 20.908 46.934 46.934 46.934zM153.6 512h716.8c26.026 0 46.934-20.906 46.934-46.934v-140.8c0-26.026-20.906-46.934-46.934-46.934l-716.8 0.002c-26.026 0-46.934 20.906-46.934 46.932v140.8c0 26.028 20.908 46.934 46.934 46.934z" />
<glyph unicode="&#xe623;" glyph-name="data" d="M512 960c-215.808 0-448-65.056-448-208v-608c0-142.88 232.192-208 448-208 215.776 0 448 65.12 448 208v608c0 142.944-232.256 208-448 208zM896 144c0-79.488-171.936-144-384-144-212.096 0-384 64.512-384 144v119.552c66.112-68.128 225.6-103.552 384-103.552s317.888 35.424 384 103.552v-119.552zM896 336h-0.128c0-0.32 0.128-0.672 0.128-0.992 0-79.008-171.936-143.008-384-143.008s-384 64-384 143.008c0 0.32 0.128 0.672 0.128 0.992h-0.128v119.552c66.112-68.128 225.6-103.552 384-103.552s317.888 35.424 384 103.552v-119.552zM896 528h-0.128c0-0.32 0.128-0.672 0.128-0.992 0-79.008-171.936-143.008-384-143.008s-384 64-384 143.008c0 0.32 0.128 0.672 0.128 0.992h-0.128v109.952c83.872-63.904 237.6-93.952 384-93.952s300.128 30.048 384 93.952v-109.952zM512 608c-212.096 0-384 64.512-384 144 0 79.552 171.904 144 384 144 212.064 0 384-64.448 384-144 0-79.488-171.936-144-384-144zM768 128c0 17.673 14.327 32 32 32s32-14.327 32-32c0-17.673-14.327-32-32-32s-32 14.327-32 32zM768 320c0 17.673 14.327 32 32 32s32-14.327 32-32c0-17.673-14.327-32-32-32s-32 14.327-32 32zM768 512c0 17.673 14.327 32 32 32s32-14.327 32-32c0-17.673-14.327-32-32-32s-32 14.327-32 32z" />
<glyph unicode="&#xe624;" glyph-name="square-check" d="M170.667 896h682.667q53 0 90.5-37.5t37.5-90.5v-682.667q0-53-37.5-90.5t-90.5-37.5h-682.667q-53 0-90.5 37.5t-37.5 90.5v682.667q0 53 37.5 90.5t90.5 37.5zM853.333 810.667h-682.667q-17.667 0-30.167-12.5t-12.5-30.167v-682.667q0-17.667 12.5-30.167t30.167-12.5h682.667q17.667 0 30.167 12.5t12.5 30.167v682.667q0 17.667-12.5 30.167t-30.167 12.5zM682.667 575q17.333 0 30-12.5t12.667-30.167-12.667-30.333l-211-211q-12.333-12.333-30-12.333-18 0-30.333 12.333l-120.667 120.667q-12.333 12.333-12.333 30.333 0 17.667 12.5 30.167t30.167 12.5q17.333 0 30-12.667l90.333-90.667 181 181q12.667 12.667 30.333 12.667z" />
<glyph unicode="&#xe625;" glyph-name="gears" horiz-adv-x="1344" d="M118.144 264.96c5.632-1.344 13.28-8.288 15.488-14.624l11.2-27.008c2.528-5.184 2.048-15.456-0.96-20.384l-44.704-73.088c-9.568-15.68-7.584-37.888 5.28-52.288l37.856-37.824c13.184-11.712 36.448-13.824 51.616-4.64l73.088 44.704c4.576 2.816 14.4 3.808 21.28 0.576l26.976-11.136c5.44-1.888 12.384-9.504 13.728-15.136l20.064-83.328c4.256-17.664 21.12-32.192 39.232-33.856 0 0 11.104-1.024 27.744-1.024s27.744 1.024 27.776 1.024c18.080 1.632 34.944 16.192 39.2 33.856l20.096 83.328c1.344 5.6 8.256 13.248 14.592 15.456l27.008 11.2c4.768 2.336 15.808 1.856 20.384-0.96l73.088-44.704c6.432-3.936 14.112-6.016 22.272-6.016 11.040 0 21.728 3.872 30.016 11.264l37.824 37.856c12.224 13.728 14.208 35.936 4.64 51.616l-44.704 73.088c-3.008 4.928-3.488 15.2-0.576 21.28l11.136 26.976c1.888 5.44 9.504 12.384 15.136 13.728l83.328 20.064c17.664 4.256 32.192 21.12 33.856 39.232 0 0 1.024 11.104 1.024 27.744s-1.024 27.744-1.024 27.776c-1.632 18.080-16.192 34.944-33.856 39.232l-83.296 20.032c-5.632 1.344-13.28 8.288-15.488 14.624l-11.2 27.008c-2.528 5.184-2.048 15.456 0.96 20.384l44.704 73.088c9.568 15.68 7.584 37.888-5.28 52.288l-37.856 37.824c-13.216 11.744-36.512 13.856-51.616 4.64l-73.088-44.704c-4.576-2.784-14.432-3.84-21.28-0.576l-26.976 11.136c-5.44 1.888-12.352 9.504-13.696 15.136l-20.096 83.328c-4.256 17.664-21.12 32.192-39.232 33.856-0.064-0.032-11.168 0.992-27.808 0.992s-27.744-1.024-27.776-1.024c-18.080-1.632-34.944-16.192-39.232-33.856l-20.032-83.264c-1.344-5.632-8.288-13.28-14.624-15.488l-27.008-11.2c-4.8-2.336-15.808-1.824-20.384 0.96l-73.056 44.704c-15.136 9.216-37.92 7.616-52.288-5.248l-37.824-37.856c-12.224-13.728-14.208-35.936-4.64-51.616l44.704-73.088c3.008-4.928 3.488-15.2 0.576-21.28l-11.136-26.976c-1.888-5.44-9.504-12.384-15.136-13.728l-83.328-20.064c-17.664-4.256-32.192-21.12-33.856-39.232 0.064 0-0.96-11.104-0.96-27.744s1.024-27.744 1.024-27.776c1.632-18.080 16.192-34.944 33.856-39.232l83.264-20.032zM32 352c0 14.656 0.864 24.544 0.896 24.864 0.384 4.32 5.28 9.984 9.472 11.008l83.328 20.064c16.16 3.904 32.448 18.688 37.504 33.504l10.368 25.184c7.296 14.944 6.272 36.896-2.4 51.104l-44.704 73.056c-2.144 3.552-1.536 10.592 0.576 12.992l36.512 36.544c2.912 2.592 10.336 3.232 13.664 1.216l73.088-44.704c13.856-8.48 37.6-9.056 50.176-2.816l25.216 10.432c15.712 5.408 30.496 21.696 34.4 37.888l20.032 83.296c1.024 4.224 6.688 9.12 11.008 9.504 0.32 0 10.208 0.864 24.864 0.864s24.544-0.864 24.864-0.896c4.32-0.384 9.984-5.28 11.008-9.472l20.064-83.296c3.904-16.16 18.656-32.48 33.504-37.536l25.184-10.368c14.624-7.168 37.28-6.048 51.104 2.4l73.056 44.704c3.328 2.016 11.2 0.96 12.992-0.576l36.544-36.512c2.752-3.104 3.36-10.112 1.216-13.664l-44.704-73.088c-8.672-14.176-9.696-36.16-2.816-50.176l10.432-25.216c5.408-15.712 21.696-30.496 37.888-34.4l83.296-20.032c4.224-1.024 9.12-6.688 9.504-11.008 0-0.32 0.864-10.208 0.864-24.864s-0.864-24.544-0.896-24.864c-0.384-4.32-5.28-9.984-9.472-11.008l-83.328-20.064c-16.16-3.904-32.448-18.688-37.504-33.504l-10.368-25.184c-7.296-14.944-6.272-36.896 2.4-51.104l44.704-73.056c2.144-3.552 1.536-10.592-0.576-12.992l-36.512-36.544c-1.728-1.536-4.864-2.528-8.032-2.528-2.208 0-4.256 0.48-5.6 1.312l-73.088 44.704c-13.824 8.448-37.568 9.056-50.176 2.816l-25.216-10.432c-15.712-5.408-30.496-21.728-34.368-37.888l-20.064-83.296c-1.024-4.224-6.688-9.12-11.008-9.504-0.352 0-10.24-0.864-24.896-0.864s-24.544 0.864-24.864 0.896c-4.32 0.384-9.984 5.28-11.008 9.472l-20.064 83.328c-3.904 16.16-18.688 32.448-33.504 37.504l-25.184 10.368c-6.528 3.2-14.432 4.864-22.88 4.864-10.528 0-20.544-2.592-28.224-7.296l-73.056-44.704c-3.328-2.016-11.232-0.928-12.992 0.576l-36.544 36.544c-2.752 3.104-3.36 10.112-1.216 13.664l44.704 73.088c8.672 14.176 9.696 36.16 2.816 50.176l-10.432 25.216c-5.408 15.712-21.696 30.496-37.888 34.4l-83.296 20.032c-4.224 1.024-9.12 6.688-9.504 11.008 0 0.32-0.864 10.208-0.864 24.864zM416 176c97.056 0 176 78.944 176 176s-78.944 176-176 176-176-78.944-176-176 78.944-176 176-176zM416 496c79.392 0 144-64.608 144-144s-64.608-144-144-144-144 64.608-144 144 64.608 144 144 144zM879.264 789.952c-1.28-1.952-5.92-4.416-8.288-4.416l-59.552 0.576c-14.464 0-28.96-10.272-33.696-23.872 0 0-2.624-7.456-5.504-18.88s-4.096-19.232-4.096-19.232c-2.24-14.432 5.792-30.4 18.688-37.152l52.512-27.52c2.016-1.056 4.992-5.504 5.312-8.736l2.976-20.32c0.48-2.24-1.056-7.36-2.688-8.96l-42.304-41.472c-10.592-10.368-13.376-28.096-6.080-42.016l19.168-32c8.096-11.904 25.632-17.984 39.392-13.696l58.368 17.856c3.168 0 6.336-1.216 8.128-2.656l16.48-12.16c1.92-1.28 4.448-5.984 4.416-8.288l-0.576-59.264c-0.128-14.592 10.112-29.216 23.872-34.016 0 0 7.456-2.624 18.88-5.504s19.232-4.096 19.232-4.096c0.832-0.128 4.16-0.384 4.992-0.384 13.056 0 26.304 7.84 32.16 19.072l27.52 52.512c1.056 2.016 5.504 4.992 8.736 5.312l21.216 3.072c3.2 0 6.976-1.664 8.032-2.752l41.472-42.304c10.080-10.304 27.072-13.984 42.016-6.080l31.968 19.168c12.224 8.32 18.144 25.28 13.728 39.392l-17.664 56.544c-0.672 2.176 0.384 7.424 2.496 9.952l12.16 16.48c1.28 1.952 5.92 4.416 8.288 4.416l59.552-0.576c14.464 0 28.96 10.272 33.696 23.872 0 0 2.624 7.456 5.504 18.88s4.096 19.232 4.096 19.232c2.24 14.432-5.792 30.4-18.688 37.152l-52.512 27.52c-2.016 1.056-4.992 5.504-5.312 8.736l-2.944 20.256c-0.48 2.24 1.056 7.36 2.688 8.96l42.304 41.472c10.592 10.368 13.376 28.096 6.080 42.016l-19.168 32c-8.096 11.872-25.6 18.016-39.392 13.728l-58.4-17.856c-3.168 0-6.336 1.216-8.128 2.656l-16.48 12.16c-1.92 1.28-4.448 5.984-4.416 8.288l0.576 59.264c0.128 14.592-10.112 29.216-23.872 34.016 0 0-7.456 2.624-18.88 5.504s-19.232 4.096-19.232 4.096c-0.832 0.096-4.16 0.352-4.992 0.352-13.056 0-26.304-7.84-32.16-19.072l-27.52-52.512c-1.056-2.016-5.504-4.992-8.736-5.312l-21.216-3.040c-3.2 0-6.976 1.664-8.032 2.752l-41.472 42.304c-10.048 10.272-27.008 13.984-42.016 6.080l-32-19.136c-12.224-8.32-18.144-25.28-13.728-39.392l17.664-56.544c0.672-2.176-0.384-7.424-2.496-9.952l-12.128-16.48zM905.504 771.648l10.976 14.912c8.576 10.144 11.904 26.688 7.936 39.328l-17.632 56.512c-0.16 0.896 0.544 2.912 0.384 2.944l30.336 18.176 3.616-0.544 41.504-42.304c7.36-7.488 19.488-12.352 30.88-12.352 2.624 0 5.152 0.256 6.528 0.608l18.4 2.72c13.184 1.152 27.232 10.496 33.376 22.208l27.488 52.48c0.512 0.8 2.528 1.952 3.84 1.952 0.352-0.032 6.88-1.12 16.416-3.488 9.504-2.4 15.776-4.544 16.064-4.672 0.992-0.416 2.432-2.496 2.496-3.52l-0.576-59.264c-0.128-13.248 7.84-28.128 18.144-34.848l14.88-10.976c9.888-8.352 26.848-11.872 39.328-7.936l56.768 17.664c1.344 0 2.848-0.832 2.656-0.416l18.176-30.336c0.352-0.832 0-2.944-0.544-3.616l-42.304-41.504c-9.44-9.312-14.336-25.44-11.744-37.408l2.688-18.4c1.152-13.184 10.496-27.232 22.24-33.376l52.48-27.488c0.896-0.576 2.016-2.816 1.952-3.84-0.032-0.352-1.12-6.88-3.488-16.416-2.4-9.504-4.544-15.776-4.672-16.064-0.416-0.992-2.496-2.432-3.52-2.496l-59.584 0.576c-13.152 0-27.872-7.968-34.528-18.144l-10.944-14.88c-8.576-10.144-11.904-26.688-7.936-39.328l17.632-56.512c0.16-0.864-0.544-2.912-0.384-2.944l-30.336-18.176-3.616 0.544-41.504 42.304c-7.36 7.488-19.488 12.352-30.88 12.352-2.624 0-5.152-0.256-6.528-0.608l-18.4-2.72c-13.184-1.152-27.232-10.496-33.376-22.208l-27.488-52.48c-0.512-0.8-2.528-1.952-3.84-1.952v0c-0.352 0.032-6.88 1.12-16.416 3.488-9.504 2.4-15.776 4.544-16.064 4.672-0.992 0.416-2.432 2.496-2.496 3.52l0.576 59.264c0.128 13.248-7.84 28.128-18.144 34.848l-14.88 10.976c-7.104 6.016-17.568 9.6-28 9.6-4.032 0-7.872-0.576-11.36-1.664l-56.768-17.664c-1.376 0-2.88 0.736-2.656 0.416l-18.176 30.336c-0.352 0.832 0 2.944 0.544 3.616l42.304 41.504c9.44 9.312 14.336 25.44 11.744 37.408l-2.688 18.368c-1.152 13.184-10.496 27.232-22.24 33.376l-52.48 27.488c-0.896 0.576-2.016 2.816-1.952 3.84 0.032 0.352 1.12 6.88 3.488 16.416 2.4 9.504 4.544 15.776 4.672 16.064 0.416 0.992 2.496 2.432 3.52 2.496l59.584-0.576c13.152 0 27.872 7.968 34.528 18.144zM1056 576c52.928 0 96 43.072 96 96s-43.072 96-96 96-96-43.072-96-96 43.072-96 96-96zM1056 736c35.296 0 64-28.704 64-64s-28.704-64-64-64-64 28.704-64 64 28.704 64 64 64z" />
<glyph unicode="&#xe626;" glyph-name="params" d="M256 767.328v96.672c0 52.928-43.072 96-96 96s-96-43.072-96-96v-96.672c-38.656-29.28-64-75.136-64-127.328s25.344-98.048 64-127.264v-480.736c0-52.928 43.072-96 96-96s96 43.072 96 96v480.736c38.656 29.184 64 75.072 64 127.264s-25.344 98.048-64 127.328zM128 864c0 17.696 14.304 32 32 32s32-14.304 32-32v-67.2c-10.336 2.080-21.024 3.2-32 3.2s-21.664-1.12-32-3.2v67.2zM192 32c0-17.696-14.304-32-32-32s-32 14.304-32 32v451.264c10.336-2.144 21.024-3.264 32-3.264s21.664 1.12 32 3.264v-451.264zM251.68 613.12c-0.512-1.696-0.96-3.36-1.568-5.056-3.040-8.448-6.944-16.448-12.096-23.552-0.128-0.192-0.32-0.32-0.448-0.512-5.568-7.616-12.192-14.368-19.712-20.064-0.128-0.128-0.224-0.192-0.32-0.256-7.712-5.824-16.32-10.496-25.568-13.76-10.016-3.616-20.672-5.92-31.968-5.92s-21.952 2.304-32 5.952c-9.248 3.264-17.856 7.936-25.568 13.76-0.096 0.064-0.192 0.128-0.32 0.256-7.52 5.696-14.144 12.448-19.712 20.064-0.128 0.192-0.32 0.32-0.448 0.512-5.152 7.136-9.056 15.136-12.096 23.552-0.608 1.696-1.056 3.36-1.568 5.056-2.528 8.544-4.288 17.472-4.288 26.848 0 9.44 1.76 18.368 4.32 26.944 0.512 1.696 0.96 3.36 1.568 4.992 3.008 8.448 6.912 16.448 12.096 23.616 0.128 0.192 0.32 0.32 0.448 0.512 5.568 7.552 12.192 14.368 19.712 20.064 0.128 0.064 0.224 0.192 0.32 0.256 7.68 5.728 16.288 10.432 25.536 13.728 10.048 3.584 20.704 5.888 32 5.888s21.952-2.304 32-5.888c9.248-3.328 17.856-8 25.568-13.76 0.096-0.064 0.192-0.192 0.32-0.256 7.52-5.696 14.144-12.512 19.712-20.064 0.128-0.192 0.32-0.32 0.448-0.512 5.152-7.136 9.056-15.136 12.064-23.584 0.608-1.632 1.088-3.296 1.568-4.992 2.56-8.576 4.32-17.504 4.32-26.944 0-9.376-1.76-18.304-4.32-26.88zM960 767.328v96.672c0 52.928-43.072 96-96 96s-96-43.072-96-96v-96.672c-38.688-29.28-64-75.136-64-127.328s25.312-98.048 64-127.264v-480.736c0-52.928 43.072-96 96-96s96 43.072 96 96v480.736c38.624 29.184 64 75.072 64 127.264s-25.376 98.048-64 127.328zM832 864c0 17.696 14.304 32 32 32s32-14.304 32-32v-67.2c-10.368 2.080-21.056 3.2-32 3.2-11.008 0-21.696-1.12-32-3.2v67.2zM896 32c0-17.696-14.304-32-32-32s-32 14.304-32 32v451.264c10.304-2.144 20.992-3.264 32-3.264 10.944 0 21.632 1.12 32 3.264v-451.264zM955.68 613.12c-0.512-1.696-0.992-3.36-1.568-5.056-3.072-8.448-6.944-16.448-12.128-23.552-0.128-0.192-0.32-0.32-0.448-0.512-5.568-7.616-12.192-14.368-19.68-20.064-0.128-0.128-0.256-0.192-0.32-0.256-7.744-5.824-16.32-10.496-25.568-13.76-10.016-3.616-20.704-5.92-31.968-5.92-11.328 0-21.952 2.304-32 5.952-9.248 3.264-17.888 7.936-25.568 13.76-0.128 0.064-0.192 0.128-0.32 0.256-7.552 5.696-14.176 12.448-19.744 20.064-0.128 0.192-0.32 0.32-0.448 0.512-5.12 7.136-9.056 15.136-12.064 23.552-0.64 1.696-1.056 3.36-1.568 5.056-2.528 8.544-4.288 17.472-4.288 26.848 0 9.44 1.76 18.368 4.32 26.944 0.512 1.696 0.928 3.36 1.568 4.992 3.008 8.448 6.944 16.448 12.064 23.616 0.128 0.192 0.32 0.32 0.448 0.512 5.568 7.552 12.192 14.368 19.744 20.064 0.128 0.064 0.192 0.192 0.32 0.256 7.68 5.76 16.32 10.432 25.568 13.76 10.016 3.552 20.64 5.856 31.968 5.856 11.264 0 21.952-2.304 32-5.888 9.248-3.328 17.824-8 25.568-13.76 0.064-0.064 0.192-0.192 0.32-0.256 7.488-5.696 14.112-12.512 19.68-20.064 0.128-0.192 0.32-0.32 0.448-0.512 5.184-7.2 9.056-15.2 12.128-23.616 0.576-1.632 1.056-3.328 1.568-4.992 2.528-8.544 4.288-17.472 4.288-26.912 0-9.376-1.76-18.304-4.32-26.88zM608 383.328v480.672c0 52.928-43.072 96-96 96s-96-43.072-96-96v-480.672c-38.656-29.248-64-75.136-64-127.328s25.344-98.048 64-127.264v-96.736c0-52.928 43.072-96 96-96s96 43.072 96 96v96.736c38.624 29.184 64 75.072 64 127.264s-25.376 98.048-64 127.328zM480 864c0 17.696 14.304 32 32 32s32-14.304 32-32v-451.2c-10.368 2.048-21.056 3.2-32 3.2-10.976 0-21.664-1.12-32-3.2v451.2zM544 32c0-17.696-14.304-32-32-32s-32 14.304-32 32v67.264c10.336-2.144 21.024-3.264 32-3.264 10.944 0 21.632 1.12 32 3.264v-67.264zM603.68 229.12c-0.512-1.696-0.992-3.36-1.568-5.056-3.072-8.448-6.944-16.448-12.128-23.552-0.128-0.192-0.32-0.32-0.448-0.512-5.568-7.616-12.192-14.368-19.68-20.064-0.128-0.128-0.256-0.192-0.32-0.256-7.744-5.824-16.32-10.496-25.568-13.76-10.016-3.616-20.704-5.92-31.968-5.92-11.296 0-21.952 2.304-32 5.952-9.248 3.264-17.856 7.936-25.568 13.76-0.096 0.064-0.192 0.128-0.32 0.256-7.52 5.696-14.144 12.448-19.712 20.064-0.128 0.192-0.32 0.32-0.448 0.512-5.152 7.136-9.056 15.136-12.096 23.552-0.608 1.696-1.056 3.36-1.568 5.056-2.528 8.544-4.288 17.472-4.288 26.848 0 9.44 1.76 18.368 4.32 26.944 0.512 1.696 0.96 3.36 1.568 4.992 3.040 8.448 6.944 16.448 12.096 23.616 0.128 0.192 0.32 0.32 0.448 0.512 5.568 7.552 12.192 14.368 19.712 20.064 0.128 0.064 0.224 0.192 0.32 0.256 7.712 5.76 16.32 10.432 25.568 13.76 10.016 3.552 20.672 5.856 31.968 5.856 11.264 0 21.952-2.304 32-5.888 9.248-3.328 17.824-8 25.568-13.76 0.064-0.064 0.192-0.192 0.32-0.256 7.488-5.696 14.112-12.512 19.68-20.064 0.128-0.192 0.32-0.32 0.448-0.512 5.184-7.2 9.056-15.2 12.128-23.616 0.576-1.632 1.056-3.328 1.568-4.992 2.528-8.544 4.288-17.472 4.288-26.912 0-9.376-1.76-18.304-4.32-26.88z" />
<glyph unicode="&#xe627;" glyph-name="square-check2" d="M170.667 896h682.667q53 0 90.5-37.5t37.5-90.5v-682.667q0-53-37.5-90.5t-90.5-37.5h-682.667q-53 0-90.5 37.5t-37.5 90.5v682.667q0 53 37.5 90.5t90.5 37.5zM853.333 810.667h-682.667q-17.667 0-30.167-12.5t-12.5-30.167v-682.667q0-17.667 12.5-30.167t30.167-12.5h682.667q17.667 0 30.167 12.5t12.5 30.167v682.667q0 17.667-12.5 30.167t-30.167 12.5zM682.667 575q17.333 0 30-12.5t12.667-30.167-12.667-30.333l-211-211q-12.333-12.333-30-12.333-18 0-30.333 12.333l-120.667 120.667q-12.333 12.333-12.333 30.333 0 17.667 12.5 30.167t30.167 12.5q17.333 0 30-12.667l90.333-90.667 181 181q12.667 12.667 30.333 12.667z" />
<glyph unicode="&#xe628;" glyph-name="cogs" d="M363.722 237.948l41.298 57.816-45.254 45.256-57.818-41.296c-10.722 5.994-22.204 10.774-34.266 14.192l-11.682 70.084h-64l-11.68-70.086c-12.062-3.418-23.544-8.198-34.266-14.192l-57.818 41.298-45.256-45.256 41.298-57.816c-5.994-10.72-10.774-22.206-14.192-34.266l-70.086-11.682v-64l70.086-11.682c3.418-12.060 8.198-23.544 14.192-34.266l-41.298-57.816 45.254-45.256 57.818 41.296c10.722-5.994 22.204-10.774 34.266-14.192l11.682-70.084h64l11.68 70.086c12.062 3.418 23.544 8.198 34.266 14.192l57.818-41.296 45.254 45.256-41.298 57.816c5.994 10.72 10.774 22.206 14.192 34.266l70.088 11.68v64l-70.086 11.682c-3.418 12.060-8.198 23.544-14.192 34.266zM224 96c-35.348 0-64 28.654-64 64s28.652 64 64 64 64-28.654 64-64-28.652-64-64-64zM1024 576v64l-67.382 12.25c-1.242 8.046-2.832 15.978-4.724 23.79l57.558 37.1-24.492 59.128-66.944-14.468c-4.214 6.91-8.726 13.62-13.492 20.13l39.006 56.342-45.256 45.254-56.342-39.006c-6.512 4.766-13.22 9.276-20.13 13.494l14.468 66.944-59.128 24.494-37.1-57.558c-7.812 1.892-15.744 3.482-23.79 4.724l-12.252 67.382h-64l-12.252-67.382c-8.046-1.242-15.976-2.832-23.79-4.724l-37.098 57.558-59.128-24.492 14.468-66.944c-6.91-4.216-13.62-8.728-20.13-13.494l-56.342 39.006-45.254-45.254 39.006-56.342c-4.766-6.51-9.278-13.22-13.494-20.13l-66.944 14.468-24.492-59.128 57.558-37.1c-1.892-7.812-3.482-15.742-4.724-23.79l-67.384-12.252v-64l67.382-12.25c1.242-8.046 2.832-15.978 4.724-23.79l-57.558-37.1 24.492-59.128 66.944 14.468c4.216-6.91 8.728-13.618 13.494-20.13l-39.006-56.342 45.254-45.256 56.342 39.006c6.51-4.766 13.22-9.276 20.13-13.492l-14.468-66.944 59.128-24.492 37.102 57.558c7.81-1.892 15.742-3.482 23.788-4.724l12.252-67.384h64l12.252 67.382c8.044 1.242 15.976 2.832 23.79 4.724l37.1-57.558 59.128 24.492-14.468 66.944c6.91 4.216 13.62 8.726 20.13 13.492l56.342-39.006 45.256 45.256-39.006 56.342c4.766 6.512 9.276 13.22 13.492 20.13l66.944-14.468 24.492 59.13-57.558 37.1c1.892 7.812 3.482 15.742 4.724 23.79l67.382 12.25zM672 468.8c-76.878 0-139.2 62.322-139.2 139.2s62.32 139.2 139.2 139.2 139.2-62.322 139.2-139.2c0-76.878-62.32-139.2-139.2-139.2z" />
<glyph unicode="&#xe629;" glyph-name="list" d="M830.889 520.476h-420.352c-40.005 0-43.486-32.397-43.486-72.476s3.478-72.476 43.486-72.476h420.352c40.005 0 43.486 32.397 43.486 72.476s-3.478 72.476-43.486 72.476zM975.836 158.102h-565.301c-40.005 0-43.486-32.397-43.486-72.476s3.478-72.476 43.486-72.476h565.301c40.005 0 43.486 32.397 43.486 72.476s-3.478 72.476-43.486 72.476zM410.535 737.898h565.301c40.005 0 43.486 32.397 43.486 72.476s-3.478 72.476-43.486 72.476h-565.301c-40.005 0-43.486-32.397-43.486-72.476s3.478-72.476 43.486-72.476zM178.618 520.476h-130.455c-40.005 0-43.486-32.397-43.486-72.476s3.478-72.476 43.486-72.476h130.455c40.005 0 43.486 32.397 43.486 72.476s-3.478 72.476-43.486 72.476zM178.618 158.102h-130.455c-40.005 0-43.486-32.397-43.486-72.476s3.478-72.476 43.486-72.476h130.455c40.005 0 43.486 32.397 43.486 72.476s-3.478 72.476-43.486 72.476zM178.618 882.846h-130.455c-40.005 0-43.486-32.397-43.486-72.476s3.478-72.476 43.486-72.476h130.455c40.005 0 43.486 32.397 43.486 72.476s-3.478 72.476-43.486 72.476z" />
<glyph unicode="&#xe62a;" glyph-name="Horizontalalignment" d="M473.6 870.4h64v-473.6h-64v473.6zM262.4 812.8h473.6v-288h-473.6v288zM883.2 89.6h-768v339.2h755.2v-339.2h12.8zM166.4 134.4h659.2v249.6h-659.2v-249.6zM473.6 121.6h64v-115.2h-64v115.2z" />
<glyph unicode="&#xe62b;" glyph-name="cross" d="M810.667 768q18.333 0 30.5-12.167t12.167-30.5q0-18-12.333-30.333l-268.667-268.333 268.667-268.333q12.333-12.333 12.333-30.333 0-18.333-12.167-30.5t-30.5-12.167q-18 0-30.333 12.333l-268.333 268.667-268.333-268.667q-12.333-12.333-30.333-12.333-18.333 0-30.5 12.167t-12.167 30.5q0 18 12.333 30.333l268.667 268.333-268.667 268.333q-12.333 12.333-12.333 30.333 0 18.333 12.167 30.5t30.5 12.167q18 0 30.333-12.333l268.333-268.667 268.333 268.667q12.333 12.333 30.333 12.333z" />
<glyph unicode="&#xe62c;" glyph-name="Alignment" d="M115.2 889.6h908.8v-57.6h-908.8v57.6zM601.6 748.8h288v-467.2h-288v467.2zM179.2 0v748.8h332.8v-748.8h-332.8zM224 710.4v-659.2h243.2v659.2h-243.2z" />
<glyph unicode="&#xe62d;" glyph-name="Align" d="M83.2 25.6h940.8v-64h-940.8v64zM640 595.2h294.4v-480h-294.4v480zM569.6 889.6v-774.4h-352v774.4h352zM518.4 160v684.8h-256v-684.8h256z" />
<glyph unicode="&#xe62e;" glyph-name="Verticalalignment" d="M473.6 467.2h550.4v-64h-550.4v64zM608 684.8h288v-473.6h-288v473.6zM179.2 64v768h332.8v-761.6l-332.8-6.4zM217.6 780.8v-665.6h243.2v665.6h-243.2zM51.2 467.2h147.2v-64h-147.2v64z" />
<glyph unicode="&#xe62f;" glyph-name="Rightalign" d="M960 896h64v-960h-64v960zM384 806.4h492.8v-300.8h-492.8v300.8zM83.2 422.4h793.6v-352h-793.6v352zM825.6 377.6h-697.6v-256h697.6v256z" />
<glyph unicode="&#xe630;" glyph-name="leftjustifying" d="M0 896h64v-960h-64v960zM147.2 806.4h492.8v-300.8h-492.8v300.8zM940.8 70.4h-793.6v352h793.6v-352zM198.4 115.2h697.6v256h-697.6v-256z" />
<glyph unicode="&#xe631;" glyph-name="IE" d="M734.202 331.17h236.050c1.82 16.37 2.548 33.098 2.548 50.196 0 80.224-21.534 155.468-59.124 220.266 38.88 103.308 37.492 190.988-14.556 243.39-49.496 49.28-182.29 41.28-332.412-25.198-11.104 0.84-22.318 1.272-33.638 1.272-206.048 0-378.926-141.794-426.708-332.85 64.638 82.754 132.638 142.754 223.478 186.448-8.26-7.74-56.454-55.652-64.56-63.764-239.548-239.478-315.090-552.306-233.806-633.604 61.786-61.774 173.758-51.342 302.376 11.648 59.806-30.458 127.5-47.63 199.218-47.63 193.134 0 356.804 124.316 416.090 297.448h-237.868c-32.734-60.382-96.748-101.48-170.218-101.48-73.468 0-137.484 41.098-170.216 101.48-14.55 27.274-22.914 58.554-22.914 91.656v0.722h386.26zM348.302 447.196c5.456 97.11 86.2 174.584 184.766 174.584s179.312-77.472 184.766-174.584h-369.532zM896.966 796.192c33.526-33.88 32.688-96.214 4.012-174.022-49.136 74.908-120.518 133.936-204.792 167.64 90.106 38.638 163.406 43.756 200.78 6.382zM93.482-7.256c-42.782 42.796-29.884 132.618 25.23 240.832 34.308-96.27 101.156-177.090 187.336-229.154-95.43-43.318-173.536-50.674-212.566-11.678z" />
<glyph unicode="&#xe632;" glyph-name="folder" d="M170.667 853.334h213.333l85.333-128h384q53 0 90.5-37.5t37.5-90.5v-469.333q0-53-37.5-90.5t-90.5-37.5h-682.667q-53 0-90.5 37.5t-37.5 90.5v597.333q0 53 37.5 90.5t90.5 37.5zM423.667 640l-82.333 128h-170.667q-17.667 0-30.167-12.5t-12.5-30.167v-597.333q0-17.667 12.5-30.167t30.167-12.5h682.667q17.667 0 30.167 12.5t12.5 30.167v469.333q0 17.667-12.5 30.167t-30.167 12.5h-429.667z" />
<glyph unicode="&#xe633;" glyph-name="arrow-down" d="M712.832 371.499c-16.683 16.683-43.648 16.683-60.331 0l-97.835-97.835v323.669c0 23.552-19.072 42.667-42.667 42.667s-42.667-19.115-42.667-42.667v-323.669l-97.835 97.835c-16.683 16.683-43.648 16.683-60.331 0s-16.683-43.648 0-60.331l200.832-200.832 200.832 200.832c16.683 16.683 16.683 43.648 0 60.331z" />
<glyph unicode="&#xe634;" glyph-name="download" d="M512-46.545c-282.764 0-512 229.236-512 512s229.236 512 512 512 512-229.236 512-512-229.236-512-512-512zM512 884.364c-231.377 0-418.909-187.532-418.909-418.909s187.532-418.909 418.909-418.909 418.909 187.532 418.909 418.909-187.532 418.909-418.909 418.909zM279.273 418.91h139.636l93.091 372.364 93.091-372.364h139.636l-232.727-232.727-232.727 232.727z" />
<glyph unicode="&#xe635;" glyph-name="linestyle" d="M170.7 789.3v-128h682.7v128h-682.7zM170.7 405.3h326.7v128h-326.7v-128zM170.7 149.3h172.7v128h-172.7v-128zM513 8639.1v-16383zM-7679 535.1h16383zM528.7 405.3h326.7v128h-326.7v-128zM855 8639.1v-16383zM-7679 533.1h16383zM-7679 533.1h16383zM426.2 149.3h172.7v128h-172.7v-128zM682.7 149.3h172.7v128h-172.7v-128z" />
<glyph unicode="&#xe636;" glyph-name="iconfont-zitiyanse" d="M647.622 241.866l140.413-165.642 140.996 165.642zM285.244 464.675l80.684 260.163 80.881-260.163h-161.565zM438.626 824.642h-122.963l-183.978-582.776h85.249l43.524 138.699h213.152l44.234-138.699h106.776l-185.994 582.776zM94.967 182.858h566.372v-75.209h-566.372v75.209z" />
<glyph unicode="&#xe637;" glyph-name="iconfont-xiantiaoyanse" d="M568.643 440.177c-31.304 13.262-59.651-0.706-72.668-15.853-13.013-15.147-19.273-47.174-32.515-78.013-13.242-30.842-60.473-90.888-60.473-90.888s54.444 2.797 83.2 9.184c52.565 11.681 89.669 39.28 102.795 62.27s11.862 52.22 11.862 52.22 3.754 45.862-32.202 61.079zM614.945 553.008l85.61-74.762-84.956-64.22-54.992 54.647zM991.4 921.626c-18.156 13.663-189.263-134.946-226.709-173.733-45.249-46.864-144.581-179.625-144.581-179.625l93.995-79.715c0 0 97.707 88.255 162.726 179.055 58.232 81.329 132.725 240.355 114.57 254.017zM26.103 211.399h969.432v-240.341h-969.432v240.341zM26.103 448h344.316v-198.972h-344.316v198.972z" />
<glyph unicode="&#xe638;" glyph-name="italic" d="M896 896v-64h-128l-320-768h128v-64h-448v64h128l320 768h-128v64z" />
<glyph unicode="&#xe639;" glyph-name="minus" d="M0 544v-192c0-17.672 14.328-32 32-32h960c17.672 0 32 14.328 32 32v192c0 17.672-14.328 32-32 32h-960c-17.672 0-32-14.328-32-32z" />
<glyph unicode="&#xe63a;" glyph-name="type" d="M896 960h-768c-17.664 0-32-14.336-32-32v-192c0-17.664 14.336-32 32-32h32c17.664 0 32 14.336 32 32l64 96h192v-768l-160-64c-17.664 0-32-14.304-32-32s14.336-32 32-32h448c17.696 0 32 14.304 32 32s-14.304 32-32 32l-160 64v768h192l64-96c0-17.664 14.304-32 32-32h32c17.696 0 32 14.336 32 32v192c0 17.664-14.304 32-32 32z" />
<glyph unicode="&#xe63b;" glyph-name="users2" d="M1006.421 87.040c-62.251 143.317-206.549 226.56-311.296 262.144 64.171 52.437 102.059 151.339 102.059 280.875 0 172.16-143.915 217.685-220.032 217.685-12.245 0-26.325-1.365-41.173-4.053-40.875 36.736-94.933 52.309-137.941 52.309-79.531 0-197.845-52.139-197.845-195.712 0-114.261 33.365-201.771 89.984-248.875-89.088-23.296-210.432-80.811-272.597-223.957l-17.579-40.491 41.088-16.213c3.669-1.451 54.187-20.821 130.645-37.931-8.747-14.848-16.981-29.824-23.936-45.781l-17.621-40.491 41.088-16.213c7.595-2.944 187.776-73.003 405.845-73.003s398.251 70.059 405.845 73.003l41.045 16.213-17.579 40.491zM711.851 630.016c0-146.389-51.627-237.312-134.699-237.312s-134.699 90.923-134.699 237.312c0 124.587 112.427 132.096 134.485 132.352 22.485-0.256 134.912-7.765 134.912-132.352zM398.037 810.667c4.309 0 21.376-0.725 40.875-7.040-45.653-32.853-81.792-87.296-81.792-173.611 0-46.891 5.077-89.685 14.421-127.829-62.805 20.011-86.016 111.573-86.016 198.101 0 103.723 93.952 110.165 112.512 110.379zM398.037 382.038c0.512 0 12.373-0.256 30.976-2.645 18.603-22.955 40.491-40.704 65.152-52.864-67.157-13.44-162.816-45.525-240.384-122.24-55.893 9.003-103.765 21.077-135.893 30.72 91.605 144.213 271.957 146.987 280.149 147.029zM577.109 42.667c-139.776 0-280.192 32-344.363 51.797 10.112 29.312 42.069 68.053 53.163 81.365 119.168 115.413 289.451 117.845 291.072 117.845 0.341 0 31.104-0.469 74.88-9.216 76.032-19.2 194.133-89.387 254.891-189.909-64.128-19.797-189.653-51.883-329.643-51.883z" />
<glyph unicode="&#xe63c;" glyph-name="uniE63C" d="M444.188 3.607h121.219v-46.943h-121.219v46.943zM479.263 65.266h46.942v-86.574h-46.942c0 0 0 86.574 0 86.574zM22.755 806.585h976.975v-41.007h-976.975v41.007zM23.731 127.043h976.975v-41.007h-976.975v41.007zM153.409 932.703h41.007v-976.975h-41.007v976.975zM832.951 933.68h41.007v-976.975h-41.007v976.975zM570.289 886.736h-121.219v46.943h121.219v-46.943zM535.213 825.077h-46.942v86.574h46.942c0 0 0-86.574 0-86.574zM953.763 379.914v121.219h46.943v-121.219h-46.943zM892.104 414.99v46.942h86.574v-46.942c0 0-86.574 0-86.574 0zM70.634 506.015v-121.219h-46.943v121.219h46.943zM132.293 470.939v-46.942h-86.574v46.942c0 0 86.574 0 86.574 0zM218.107 741.63h582.416v-582.416h-582.416v582.416z" />
<glyph unicode="&#xe63d;" glyph-name="uniE63D" d="M22.755 806.585h976.975v-41.007h-976.975v41.007zM23.731 127.043h976.975v-41.007h-976.975v41.007zM153.409 932.703h41.007v-976.975h-41.007v976.975zM832.951 933.68h41.007v-976.975h-41.007v976.975zM570.289 886.736h-121.219v46.943h121.219v-46.943zM535.213 825.077h-46.942v86.574h46.942c0 0 0-86.574 0-86.574zM70.634 506.015v-121.219h-46.943v121.219h46.943zM132.293 470.939v-46.942h-86.574v46.942c0 0 86.574 0 86.574 0zM208.898 752.886h516.042v-516.042h-516.042v516.042z" />
<glyph unicode="&#xe63f;" glyph-name="uniE63F" d="M475.781 554.55h-274.806v253.084h274.807v-253.084zM242.387 595.963h191.981v170.258h-191.981v-170.258zM641.833 316.013h-593.583v274.113h593.584v-274.113zM89.662 357.426h510.758v191.288h-510.758v-191.288zM549.331 93.176h-409.78v260.394h409.779v-260.394zM182.53 136.155h323.821v174.436h-323.821v-174.436zM808.191 376.311l145.298-145.299h-111.768v-134.122h-67.061v134.122h-111.768l145.298 145.299zM841.722 807.493v-134.122h111.768l-145.298-145.298-145.298 145.298h111.768v134.122h67.061z" />
<glyph unicode="&#xe640;" glyph-name="uniE640" d="M589.666 475.492v274.807h253.083v-274.807h-253.083zM631.078 708.886v-191.98h170.258v191.98h-170.258zM351.129 309.44v593.584h274.113v-593.584h-274.113zM392.541 861.611v-510.758h191.288v510.758h-191.288zM128.291 401.943v409.779h260.394v-409.779h-260.394zM171.27 768.743v-323.821h174.436v323.821h-174.436zM411.426 143.083l-145.298-145.298v111.768h-134.122v67.060h134.122v111.769l145.298-145.298zM842.608 109.553h-134.122v-111.768l-145.298 145.298 145.298 145.298v-111.768h134.122v-67.061z" />
<glyph unicode="&#xe644;" glyph-name="uniE644" d="M367.102 678.645h102.688v-117.309h-244.040v-247.269h244.040v-102.699h-172.878v-247.27h401.128v247.27h-166.57v102.699h247.481v247.269h-247.481v117.309h92.48v247.27h-256.848z" />
<glyph unicode="&#xe645;" glyph-name="uniE645" d="M750.315 580.255v-102.688h-117.308v244.040h-247.27v-244.040h-102.699v172.878h-247.27v-401.129h247.27v166.571h102.699v-247.481h247.27v247.481h117.308v-92.48h247.27v256.848z" />
<glyph unicode="&#xe646;" glyph-name="uniE646" d="M446.581 860.224h132.556v-71.159h-132.556v71.159zM475.234 917.529h71.158v-234.888h-71.158v234.888zM354.728 298.864v286.526h286.526v-286.526h-286.526zM399.754 540.365v-196.475h196.475v196.475h-196.475zM445.558 92.744h132.556v-71.159h-132.556v71.159zM474.21 199.168h71.158v-234.888h-71.158v234.888zM922.456 512.81v-132.556h-71.159v132.556h71.159zM979.761 484.158v-71.158h-234.888v71.158h234.888zM175.443 513.833v-132.556h-71.159v132.556h71.159zM281.867 485.181v-71.158h-234.888v71.158h234.888zM33.407-37.138h367.761v42.979h-324.782v333.446h-42.979zM76.386 891.345h324.782v42.979h-367.761v-380.186h42.979zM961.89 5.841h-345.871v-42.979h388.85v376.425h-42.979zM1004.869 934.324h-388.85v-42.979h345.871v-337.207h42.979z" />
<glyph unicode="&#xe647;" glyph-name="svg" d="M736.832 886.144v-890.432h246.272v890.432h-246.272zM926.272 52.48h-132.608v776.768h132.608v-776.768zM531.008 884.8h71.168v-71.168h-71.168v71.168zM343.232 884.8h71.168v-71.168h-71.168v71.168zM164.16 641.728h71.168v106.368h32.704v71.168h-32.704v57.344h-71.168v-57.344h-28.672v-71.168h28.672zM34.432 298.88h286.528v286.528h-286.528v-286.528zM79.488 540.352h196.48v-196.48h-196.48v196.48zM529.984 66.112h71.168v-71.168h-71.168v71.168zM342.208 66.112h71.168v-71.168h-71.168v71.168zM234.304 238.080h-71.168v-106.432h-28.672v-71.168h28.672v-57.28h71.168v57.28h32.704v71.168h-32.704z" />
<glyph unicode="&#xe648;" glyph-name="svg2" d="M953.664 914.88h-890.432v-246.272h890.432v246.272zM896.832 725.44h-776.768v132.608h776.768v-132.608zM64.576 533.952h71.168v-71.168h-71.168v71.168zM64.576 346.176h71.168v-71.168h-71.168v71.168zM201.216 199.808h-71.168v-32.704h-57.344v-71.168c0 0 36.16 0 57.344 0v-28.672h71.168v28.672c52.736 0 106.368 0 106.368 0v71.168h-106.368v32.704zM363.968-33.792h286.528v286.528h-286.528v-286.528zM408.96 207.68h196.48v-196.48h-196.48v196.48zM883.2 532.928h71.168v-71.168h-71.168v71.168zM883.2 345.152h71.168v-71.168h-71.168v71.168zM888.896 198.784h-71.168v-32.704h-106.432v-71.168h106.432v-28.672h71.168v28.672h57.28v71.168h-57.28z" />
<glyph unicode="&#xe649;" glyph-name="add-to-list" d="M993.28 512h-174.080v174.080c0 30.72-20.48 30.72-51.2 30.72s-51.2 0-51.2-30.72v-174.080h-174.080c-30.72 0-30.72-20.48-30.72-51.2s0-51.2 30.72-51.2h174.080v-174.080c0-30.72 20.48-30.72 51.2-30.72s51.2 0 51.2 30.72v174.080h174.080c30.72 0 30.72 20.48 30.72 51.2s0 51.2-30.72 51.2zM378.88 512h-348.16c-30.72 0-30.72-20.48-30.72-51.2s0-51.2 30.72-51.2h348.16c30.72 0 30.72 20.48 30.72 51.2s0 51.2-30.72 51.2zM378.88 256h-348.16c-30.72 0-30.72-20.48-30.72-51.2s0-51.2 30.72-51.2h348.16c30.72 0 30.72 20.48 30.72 51.2s0 51.2-30.72 51.2zM378.88 768h-348.16c-30.72 0-30.72-20.48-30.72-51.2s0-51.2 30.72-51.2h348.16c30.72 0 30.72 20.48 30.72 51.2s0 51.2-30.72 51.2z" />
<glyph unicode="&#xe64a;" glyph-name="head" d="M512 938.667q69.667 0 128.5-34.333t93.167-93.167 34.333-128.5v-128q0-53.333-20.667-101t-57.667-83q97.333-15.333 173-45.167t118.5-70.5 42.833-85.667v-84q0-53-37.5-90.5t-90.5-37.5h-768q-53 0-90.5 37.5t-37.5 90.5v84.333q0 45 42.833 85.667t118.333 70.5 172.833 44.833q-36.667 35.667-57.333 83.167t-20.667 100.833v128q0 69.667 34.333 128.5t93.167 93.167 128.5 34.333zM512 298.667q-92.667 0-178.833-14.833t-150.167-41.5q-25.667-10.667-45.833-22.667t-30.667-21.667-15.833-16.833-5.333-11.5v-84.333q0-17.667 12.5-30.167t30.167-12.5h768q17.667 0 30.167 12.5t12.5 30.167v84q0 4.333-5.333 11.5t-15.833 16.833-30.667 21.667-45.833 23q-64 26.667-150.167 41.5t-178.833 14.833zM512 853.334q-70.667 0-120.667-50t-50-120.667v-128q0-70.667 50-120.667t120.667-50 120.667 50 50 120.667v128q0 70.667-50 120.667t-120.667 50z" />
<glyph unicode="&#xe64b;" glyph-name="forum" d="M726 426.667q0-18-13-30t-31-12h-426l-170-172v598q0 18 12 30t30 12h554q18 0 31-12t13-30v-384zM896 682.667q18 0 30-12t12-30v-640l-170 170h-470q-18 0-30 12t-12 30v86h554v384h86z" />
<glyph unicode="&#xe64c;" glyph-name="users3" d="M640 325.846c0 0-263.765 0-362.667-230.827 0 0 165.163-65.92 362.667-65.92s362.667 65.92 362.667 65.92c-98.901 230.827-362.667 230.827-362.667 230.827zM640 358.742c98.901 0 164.821 98.901 164.821 263.808s-164.821 164.864-164.821 164.864-164.821 0-164.821-164.864 65.92-263.808 164.821-263.808zM320 471.254c32.512 0 60.416 13.483 82.56 37.76-8.192 33.152-12.715 71.040-12.715 113.536 0 63.36 24.363 102.229 54.357 126.208-32.683 75.307-124.203 75.477-124.203 75.477s-135.765 0-135.765-135.765c0-135.765 54.315-217.216 135.765-217.216zM448 364.843l-4.608 53.675c-66.475 25.429-123.392 25.6-123.392 25.6s-217.216 0-298.667-190.080c0 0 105.003-41.856 240.853-52.053 118.315 123.861 185.813 162.859 185.813 162.859z" />
<glyph unicode="&#xe64d;" glyph-name="trash-o" horiz-adv-x="805" d="M292.571 530.286v-329.143q0-8-5.143-13.143t-13.143-5.143h-36.571q-8 0-13.143 5.143t-5.143 13.143v329.143q0 8 5.143 13.143t13.143 5.143h36.571q8 0 13.143-5.143t5.143-13.143zM438.857 530.286v-329.143q0-8-5.143-13.143t-13.143-5.143h-36.571q-8 0-13.143 5.143t-5.143 13.143v329.143q0 8 5.143 13.143t13.143 5.143h36.571q8 0 13.143-5.143t5.143-13.143zM585.143 530.286v-329.143q0-8-5.143-13.143t-13.143-5.143h-36.571q-8 0-13.143 5.143t-5.143 13.143v329.143q0 8 5.143 13.143t13.143 5.143h36.571q8 0 13.143-5.143t5.143-13.143zM658.286 116.571v541.714h-512v-541.714q0-12.571 4-23.143t8.286-15.429 6-4.857h475.429q1.714 0 6 4.857t8.286 15.429 4 23.143zM274.286 731.428h256l-27.429 66.857q-4 5.143-9.714 6.286h-181.143q-5.714-1.143-9.714-6.286zM804.571 713.143v-36.571q0-8-5.143-13.143t-13.143-5.143h-54.857v-541.714q0-47.429-26.857-82t-64.571-34.571h-475.429q-37.714 0-64.571 33.429t-26.857 80.857v544h-54.857q-8 0-13.143 5.143t-5.143 13.143v36.571q0 8 5.143 13.143t13.143 5.143h176.571l40 95.429q8.571 21.143 30.857 36t45.143 14.857h182.857q22.857 0 45.143-14.857t30.857-36l40-95.429h176.571q8 0 13.143-5.143t5.143-13.143z" />
<glyph unicode="&#xe64e;" glyph-name="document-text" d="M725.333 42.667h-426.667c-70.571 0-128 57.429-128 128v512c0 70.571 57.429 128 128 128h426.667c70.571 0 128-57.429 128-128v-512c0-70.571-57.429-128-128-128zM298.667 725.334c-23.509 0-42.667-19.157-42.667-42.667v-512c0-23.509 19.157-42.667 42.667-42.667h426.667c23.509 0 42.667 19.157 42.667 42.667v512c0 23.509-19.157 42.667-42.667 42.667h-426.667zM682.667 469.334h-341.333c-11.776 0-21.333 9.557-21.333 21.333s9.557 21.333 21.333 21.333h341.333c11.776 0 21.333-9.557 21.333-21.333s-9.557-21.333-21.333-21.333zM682.667 597.334h-341.333c-11.776 0-21.333 9.557-21.333 21.333s9.557 21.333 21.333 21.333h341.333c11.776 0 21.333-9.557 21.333-21.333s-9.557-21.333-21.333-21.333zM682.667 341.334h-341.333c-11.776 0-21.333 9.557-21.333 21.333s9.557 21.333 21.333 21.333h341.333c11.776 0 21.333-9.557 21.333-21.333s-9.557-21.333-21.333-21.333zM682.667 213.334h-341.333c-11.776 0-21.333 9.557-21.333 21.333s9.557 21.333 21.333 21.333h341.333c11.776 0 21.333-9.557 21.333-21.333s-9.557-21.333-21.333-21.333z" />
<glyph unicode="&#xe64f;" glyph-name="file-add2" d="M341.333 640v-85.333h256v85.333h-256zM341.333 469.334h384v42.667h-384v-42.667zM725.333 426.667h-341.333v-42.667h341.333v42.667zM725.333 298.667v42.667h-298.667v-42.667h298.667zM341.333 341.334h-128v-128h-128v-128h128v-128h128v128h128v128h-128v128zM170.667 853.334v-426.667h85.333v341.333h554.667v-725.333h-283.435l-42.667-85.333h411.435v896h-725.333z" />
<glyph unicode="&#xe650;" glyph-name="file3" d="M670.016 831.008h-446.016v-766.016h320v64h-256v638.016h320v-96h128v-352h64v385.984l-129.984 126.016zM736 255.008h-64v-64h-64v-64h64v-62.016h64v64h64v62.016h-64v64z" />
<glyph unicode="&#xe651;" glyph-name="mail" d="M170.667 810.667h682.667q53 0 90.5-37.5t37.5-90.5v-512q0-53-37.5-90.5t-90.5-37.5h-682.667q-53 0-90.5 37.5t-37.5 90.5v512q0 53 37.5 90.5t90.5 37.5zM896 170.667v466l-357.333-286q-11.333-9.333-26.667-9.333t-26.667 9.333l-357.333 286v-466q0-17.667 12.5-30.167t30.167-12.5h682.667q17.667 0 30.167 12.5t12.5 30.167zM853.333 725.334h-682.667q-6.333 0-14-2.333l355.333-284.333 355.333 284.333q-7.667 2.333-14 2.333z" />
<glyph unicode="&#xe652;" glyph-name="folder2" d="M170.667 853.334h213.333l85.333-128h384q53 0 90.5-37.5t37.5-90.5v-469.333q0-53-37.5-90.5t-90.5-37.5h-682.667q-53 0-90.5 37.5t-37.5 90.5v597.333q0 53 37.5 90.5t90.5 37.5zM423.667 640l-82.333 128h-170.667q-17.667 0-30.167-12.5t-12.5-30.167v-597.333q0-17.667 12.5-30.167t30.167-12.5h682.667q17.667 0 30.167 12.5t12.5 30.167v469.333q0 17.667-12.5 30.167t-30.167 12.5h-429.667z" />
<glyph unicode="&#xe653;" glyph-name="user-add-outline" d="M896 341.334h-256c-23.595 0-42.667 19.115-42.667 42.667s19.072 42.667 42.667 42.667h256c23.595 0 42.667-19.115 42.667-42.667s-19.072-42.667-42.667-42.667zM768 213.334c-23.595 0-42.667 19.115-42.667 42.667v256c0 23.552 19.072 42.667 42.667 42.667s42.667-19.115 42.667-42.667v-256c0-23.552-19.072-42.667-42.667-42.667zM384 682.667c70.571 0 128-57.429 128-128s-57.429-128-128-128-128 57.429-128 128 57.429 128 128 128zM384 768c-117.931 0-213.333-95.488-213.333-213.333s95.403-213.333 213.333-213.333 213.333 95.488 213.333 213.333-95.403 213.333-213.333 213.333zM384 213.334c86.229 0 140.843-32.896 161.408-61.653-29.141-11.093-84.011-23.68-161.408-23.68-84.651 0-136.789 13.013-162.901 23.125 19.584 30.507 75.819 62.208 162.901 62.208zM384 298.667c-160 0-256-85.333-256-170.667 0-42.667 96-85.333 256-85.333 150.101 0 256 42.667 256 85.333s-100.437 170.667-256 170.667z" />
<glyph unicode="&#xe654;" glyph-name="iconfont-friendadd" d="M897.568 192h-97.568v93.824c0 17.696-14.304 32-32 32s-32-14.304-32-32v-93.824h-94.688c-17.696 0-32-14.304-32-32s14.304-32 32-32h94.688v-98.432c0-17.696 14.304-32 32-32s32 14.304 32 32v98.432h97.568c17.696 0 32 14.304 32 32s-14.304 32-32 32zM468-3.424c-86.976 0-370.72 11.968-370.72 166.176 0 85.472 127.424 133.664 256.032 152.032v37.664c-84.672 81.216-93.792 189.088-95.488 284.544 0 158.496 86.144 256.608 224.832 256.608 147.744 0 222.656-86.144 222.656-256.032 0-79.36-31.648-146.432-64.096-208.288l-31.904-66.016v-77.696c0-17.696-14.304-32-32-32s-32 14.304-32 32v84.992c0 4.8 1.088 9.6 3.2 13.952l35.552 73.536c30.4 57.984 57.248 114.624 57.248 179.488 0 134.592-47.424 192.032-158.656 192.032-145.184 0-160.832-134.304-160.832-192.032 1.952-108.672 16.736-188.16 84.448-246.784 7.008-6.048 11.040-14.912 11.040-24.192v-80c0-16.32-12.288-30.016-28.512-31.808-136.096-14.88-227.52-59.584-227.52-92 0-74.976 183.424-102.176 306.72-102.176 62.368 0 167.84 14.56 168.896 14.688 17.472 2.56 33.664-9.792 36.096-27.296s-9.792-33.664-27.296-36.096c-4.48-0.608-110.88-15.296-177.696-15.296z" />
<glyph unicode="&#xe655;" glyph-name="iconfont-fabu" d="M990.781 892.539c-3.359 1.597-7.045 2.376-11.018 2.376-14.459 0-27.607-10.813-27.402-10.813-8.806-4.424-880.599-443.228-911.442-459.448-17.408-9.134-27.361-24.74-25.928-40.714 1.106-13.148 9.789-23.511 23.101-27.771 26.173-8.274 290.243-91.587 290.243-91.587l4.833-1.475 16.671 50.053-254.321 79.544 780.739 406.282c-82.821-93.88-420.536-476.324-436.101-493.937-20.111-22.487-29.491-45.097-29.409-70.984l0.287-153.272h-0.082c0 0 0.082-53.494 0.082-53.658v-1.966c1.188-13.517 12.739-24.248 26.542-24.248s25.518 10.732 26.747 24.248v0c0 0 0.532 191.037 0 205.087-0.492 12.493 5.079 26.542 10.691 33.055 5.652 6.39 390.636 442.614 465.756 527.811-21.381-106.414-126.689-629.76-128.246-637.42-0.819-4.055-2.58-4.055-3.359-4.055-0.614 0-1.311 0.123-2.048 0.369-7.455 2.376-268.82 81.551-279.921 84.91l-4.71 1.434-17.162-50.504 5.079-1.597c2.58-0.778 258.908-79.094 284.385-86.467 5.079-1.475 10.24-2.253 15.442-2.253 26.993 0 49.562 19.374 54.886 46.981 2.089 10.936 27.034 134.676 55.91 277.996 39.772 197.14 84.787 420.618 85.934 427.622l0.614 3.318c2.13 11.51 5.693 30.515-16.794 41.083z" />
<glyph unicode="&#xe656;" glyph-name="iconfont-zhongmingming" d="M1012.047 693.287c-1.761 1.76-3.679 3.265-5.703 4.532l-247.063 247.063c-1.267 2.023-2.771 3.94-4.531 5.701-12.557 12.558-32.919 12.558-45.478 0l-478.123-483.266c-6.506-6.506-9.633-15.106-9.397-23.632 0-0.034-0.003-0.068-0.003-0.102v-247.361c0-0.103 0.007-0.205 0.008-0.307-0.001-0.112-0.008-0.222-0.008-0.333 0-19.51 15.822-35.296 35.296-35.296h263.539c4.487-0.229 9.010 0.483 13.256 2.125 0.052 0.019 0.103 0.039 0.155 0.058 0.163 0.065 0.328 0.127 0.49 0.194 6.782 2.625 12.558 7.278 16.565 13.227l460.995 471.884c12.558 12.558 12.558 32.956 0.002 45.514zM360.491 232.192l-65.523 65.522v129.835l195.358-195.357h-129.835zM546.702 263.506c-1.567 3.689-3.846 7.148-6.855 10.156l-204.686 204.685c-0.443 0.443-0.898 0.866-1.36 1.278l346.164 349.889 212.292-212.294-345.555-353.714zM767.699 50.954h-653.543v763.441h290.074l-0.142 107.842h-398.943v-979.658h871.815v288.762h-109.261v-180.387z" />
<glyph unicode="&#xe657;" glyph-name="iconfont-iconfontpinglun" d="M963.792 745.987v43.514c0 47.947-35.775 86.803-83.669 87.010l-736.105-0.347c-44.882-1.974-80.363-24.069-80.552-69.678l0.364-538.949c2.061-46.251 39.896-83.219 86.648-83.219h46.233v-0.277l168.949 0.277c24.034 0 43.532 8.121 43.532 32.155 0 24.018-19.48 36.553-43.532 36.553l-185.156-0.294c-32.571 2.043-43.861 9.506-47.705 35.791l-0.328 482.83c4.519 25.16 16.623 32.675 48.414 34.838l714.081 0.328v-0.918l-56.657 0.381c41.194-0.935 53.177-6.718 56.639-41.124l-0.468-470.414c-2.545-34.233-12.64-40.865-49.799-42.147l-306.591-0.294c-1.108 0-2.147-0.173-3.238-0.242-3.931 0.104-7.844-0.554-11.723-1.87-1.402-0.398-2.702-0.935-3.999-1.455l-0.121-0.053c-5.956-2.459-10.961-6.060-14.597-10.926l-174.888-173.537c-16.988-16.969-23.463-43.635-6.476-60.605 17.003-17.003 44.553-9.61 61.557 7.376l174.577 173.226 320.634 0.398c48.085 0 84.050 38.994 84.050 87.046v43.532l0.157 0.018 0.432 431.091h-0.658zM894.409 252.353l-23.393-0.018 23.393 0.157v-0.138zM838.288 805.986c-8.433 0.19-17.992 0.19-29.055 0.19l29.055-0.19zM271.114 529.318c0-28.692 23.256-51.948 51.948-51.948s51.948 23.256 51.948 51.948c0 28.692-23.256 51.948-51.948 51.948s-51.948-23.238-51.948-51.948zM565.464 529.318c0 28.692-23.273 51.948-51.948 51.948-28.692 0-51.948-23.256-51.948-51.948s23.256-51.948 51.948-51.948c28.692 0 51.948 23.272 51.948 51.948zM755.935 529.318c0 28.692-23.273 51.948-51.948 51.948s-51.948-23.256-51.948-51.948c0-28.692 23.273-51.948 51.948-51.948s51.948 23.272 51.948 51.948z" />
<glyph unicode="&#xe658;" glyph-name="iconfont-iconxinjiandebiaodan" d="M64 896v-896h896v896h-896zM896 64h-768v768h768v-768zM128 704h768v-64h-768v64zM256 512h192v-128h-192v128zM576 512h192v-128h-192v128zM256 320h192v-128h-192v128zM576 320h192v-128h-192v128z" />
<glyph unicode="&#xe659;" glyph-name="iconfont-iconxinjianbiaodan" d="M256 320h512v-128h-512v128zM256 512h512v-128h-512v128zM256 704h320v-128h-320v128zM704 896h-640v-896h896v640l-256 256zM704 780.8l140.8-140.8h-140.8v140.8zM896 64h-768v768h512v-256h256v-512z" />
<glyph unicode="&#xe65b;" glyph-name="cloud-check" d="M892.268 445.51c2.442 11.108 3.732 22.646 3.732 34.49 0 88.366-71.634 160-160 160-14.224 0-28.014-1.868-41.134-5.352-24.796 77.352-97.288 133.352-182.866 133.352-87.348 0-161.054-58.336-184.326-138.17-22.742 6.62-46.792 10.17-71.674 10.17-141.384 0-256-114.616-256-256 0-141.382 114.616-256 256-256h608c88.366 0 160 71.632 160 160 0 78.718-56.854 144.16-131.732 157.51zM416 192l-160 160 64 64 96-96 224 224 64-64-288-288z" />
<glyph unicode="&#xe65c;" glyph-name="clipboard" d="M85.334 21.334c0-47.146 38.186-85.334 85.334-85.334h661.334c47.146 0 85.334 38.186 85.334 85.334l-0.002 725.332c0 47.146-38.186 85.334-85.334 85.334h-173.866c-14.698 72.96-79.36 128-156.8 128s-142.080-55.040-156.8-128h-173.868c-47.146 0-85.334-38.186-85.334-85.334l0.002-725.332zM238.934 725.334h102.4v-38.4c0-26.026 20.906-46.934 46.934-46.934h226.134c26.026 0 46.934 20.906 46.934 46.934l-0.002 38.4h102.4c26.026 0 46.934-20.906 46.934-46.934v-588.8c0-26.026-20.906-46.934-46.934-46.934h-524.8c-26.028 0-46.934 20.908-46.934 46.934v588.8c0 26.026 20.906 46.934 46.934 46.934zM448 800c0 29.44 23.894 53.334 53.334 53.334s53.332-23.894 53.332-53.334-23.892-53.334-53.332-53.334-53.334 23.894-53.334 53.334z" />
<glyph unicode="&#xe800;" glyph-name="Formfield" d="M524.8 857.6c128 0 249.6 0 377.6 0 44.8 0 57.6-12.8 57.6-57.6 0-217.6 0-435.2 0-652.8 0-44.8-12.8-57.6-57.6-57.6-256 0-505.6 0-761.6 0-38.4 0-57.6 12.8-57.6 57.6 0 217.6 0 435.2 0 659.2 0 38.4 12.8 51.2 57.6 51.2 128 0 256 0 384 0zM358.4 294.4c-76.8 0-147.2 0-217.6 0 0-51.2 0-96 0-147.2 70.4 0 147.2 0 217.6 0 0 51.2 0 96 0 147.2zM627.2 147.2c0 51.2 0 102.4 0 147.2-70.4 0-147.2 0-217.6 0 0-51.2 0-96 0-147.2 76.8 0 147.2 0 217.6 0zM684.8 147.2c76.8 0 147.2 0 217.6 0 0 51.2 0 96 0 147.2-70.4 0-147.2 0-217.6 0 0-51.2 0-96 0-147.2zM140.8 492.8c0-51.2 0-96 0-147.2 70.4 0 147.2 0 217.6 0 0 51.2 0 96 0 147.2-76.8 0-147.2 0-217.6 0zM684.8 345.6c70.4 0 140.8 0 211.2 0 6.4 0 12.8 6.4 12.8 12.8 0 44.8 0 89.6 0 134.4-76.8 0-147.2 0-217.6 0-6.4-51.2-6.4-96-6.4-147.2zM409.6 345.6c70.4 0 147.2 0 217.6 0 0 51.2 0 96 0 147.2-70.4 0-147.2 0-217.6 0 0-51.2 0-96 0-147.2zM358.4 544c0 51.2 0 96 0 147.2-70.4 0-147.2 0-217.6 0 0-44.8 0-89.6 0-134.4 0-6.4 6.4-12.8 12.8-12.8 70.4 0 134.4 0 204.8 0zM416 544c70.4 0 147.2 0 217.6 0 0 51.2 0 96 0 147.2-70.4 0-147.2 0-217.6 0 0-51.2 0-96 0-147.2zM902.4 544c0 51.2 0 96 0 147.2-70.4 0-147.2 0-217.6 0 0-51.2 0-96 0-147.2 70.4 0 140.8 0 217.6 0z" />
<glyph unicode="&#xe900;" glyph-name="linewidth" d="M172.8 768h684.8v-83.2h-684.8v83.2zM172.8 345.6h684.8v-198.4h-684.8v198.4zM166.4 582.4h684.8v-128h-684.8v128z" />
<glyph unicode="&#xe901;" glyph-name="uniE643" d="M326.398 569.601v140.802h64.001v-140.802h-64.001zM492.8 697.603h-275.197v256.003h275.197v-256.003zM262.397 736.003h192.002v172.796h-192.002v-172.796zM654.253 319.378h-595.201v275.197h595.201v-275.197zM103.846 364.185h512.006v191.99h-512.006c0 0 0-191.99 0-191.99zM556.801-44.806h-409.605v262.397h409.605v-262.397zM192.002-6.405h320.004v172.796h-320.004c0 6.406 0-172.796 0-172.796zM326.398 204.791v115.201h64.001v-121.595h-64.001v6.394zM812.804 793.598l147.196-140.802h-108.795v-134.396h-64.001v134.396h-108.795c-12.8 0 134.396 140.802 134.396 140.802zM844.81 358.393v-134.396h115.201l-147.208-147.196-147.196 147.196h108.795v134.396c6.406 0 70.407 0 70.407 0z" />
<glyph unicode="&#xe902;" glyph-name="uniE63E" d="M627.2 633.6h140.8v-64h-140.8v64zM755.2 467.2v275.2h256v-275.2h-256zM793.6 697.6v-192h172.8v192h-172.8zM371.2 307.2v588.8h275.2v-595.2h-275.2zM416 857.6v-512h192v512c0 0-192 0-192 0zM12.8 403.2v409.6h262.4v-409.6h-262.4zM51.2 768v-320h172.8v320c6.4 0-172.8 0-172.8 0zM262.4 633.6h121.6v-64h-121.6v64zM857.6 147.2l-147.2-147.2v108.8h-134.4v64h134.4v108.8c0 12.8 147.2-134.4 147.2-134.4zM422.4 115.2h-134.4v-115.2l-147.2 147.2 147.2 147.2v-108.8h134.4c0-6.4 0-70.4 0-70.4z" />
<glyph unicode="&#xe903;" glyph-name="uniE642" d="M326.398 569.601v140.802h64.001v-140.802h-64.001zM492.8 697.603h-275.197v256.003h275.197v-256.003zM262.397 736.003h192.002v172.796h-192.002v-172.796zM654.734 319.378h-595.213v275.197h595.201v-275.197zM104.328 364.173h512.006v192.002h-512.006c0 0 0-192.002 0-192.002zM556.801-44.806h-409.605v262.397h409.605v-262.397zM192.002-6.405h320.004v172.796h-320.004c0 6.406 0-172.796 0-172.796zM326.398 204.791v115.201h64.001v-121.595h-64.001v6.394zM812.804 492.801l-140.802 147.196h108.795v134.408h64.001v-134.396h115.201l-147.196-147.208zM780.809 121.596v134.396h-108.795l147.196 147.208 140.802-147.196h-108.795v-134.396h-70.407z" />
<glyph unicode="&#xe904;" glyph-name="uniE641" d="M627.2 633.6h140.8v-64h-140.8v64zM755.2 467.2v275.2h256v-275.2h-256zM793.6 697.6v-192h172.8v192h-172.8zM371.2 307.2v588.8h275.2v-595.2h-275.2zM416 857.6v-512h192v512c0 0-192 0-192 0zM12.8 403.2v409.6h262.4v-409.6h-262.4zM51.2 768v-320h172.8v320c6.4 0-172.8 0-172.8 0zM262.4 633.6h121.6v-64h-121.6v64zM556.8 147.2l147.2 147.2v-108.8h128v-64h-134.4v-108.8l-140.8 134.4zM179.2 185.6h134.4v108.8l147.2-147.2-147.2-147.2v108.8h-134.4v76.8z" />
<glyph unicode="&#xe905;" glyph-name="iconfont-wenziyanse" d="M969.024 27.456l-362.048 784.512-53.44 94.976h-121.664l-46.464-94.976-331.392-783.36 1.664-2.048c-0.768-2.624-1.6-5.248-1.6-8.128 0-16.256 13.184-29.44 29.44-29.44 0.768 0 1.408 0.32 2.176 0.384l0.32-0.384h109.504l120.576 284.864h358.272l136.128-284.864h127.616l0.32 0.384c0.768-0.064 1.408-0.384 2.176-0.384 16.256 0 29.44 13.184 29.44 29.44 0 2.88-0.896 5.504-1.6 8.128l0.576 0.896zM346.816 387.264l126.016 297.792 142.336-297.792z" />
<glyph unicode="&#xe906;" glyph-name="iconfont-zhongzuo" d="M576.4 143v217.3c0 0-54.2 1.5-138.9-7.1-39-3.9-99.9-22.7-137.1-39.6-70-24.8-229.2-156.6-229.2-156.6s139 234.2 220.1 309.3c15.6 14.4 108.1 84.7 141.8 100.4 48.2 22.4 95.6 46.6 143.3 70.1v200.4l389.5-344.3-389.5-349.9z" />
<glyph unicode="&#xe907;" glyph-name="quill" d="M0-64c128 384 463 1024 1024 1024-263-211-384-704-576-704s-192 0-192 0l-192-320h-64z" />
<glyph unicode="&#xe908;" glyph-name="iconfont-chexiao" d="M71.259 492.919l389.472 344.316v-200.38c47.688-23.467 95.076-47.688 143.255-70.108 33.644-15.658 126.228-86.003 141.793-100.399 81.137-75.030 220.136-309.277 220.136-309.277s-159.226 131.706-229.179 156.553c-37.116 16.857-98.014 35.654-137.057 39.593-84.727 8.554-138.945 7.056-138.945 7.056v-217.314l-389.474 349.96z" />
<glyph unicode="&#xe909;" glyph-name="iconfont-shouqi1" d="M725.2 529.6l-212.2-153.7-214.4 156.1c-8.3 8.4-21.9 8.4-30.3 0s-8.4-22 0-30.4l226.8-165.1c6.7-6.8 16.8-7.8 24.9-3.6 4 0.7 7.9 2.2 11 5.4l223.6 161.9c8.1 8.1 8.1 21.3 0 29.4-8.2 8.1-21.3 8.1-29.4 0v0zM822.9 787.3h-622.4c-34.4 0-62.2-27.9-62.2-62.2v-560.2c0-34.4 27.9-62.2 62.2-62.2h622.4c34.4 0 62.2 27.9 62.2 62.2v560.1c0 34.4-27.8 62.3-62.2 62.3v0zM843.6 185.6c0-22.9-18.6-41.5-41.5-41.5h-580.9c-22.9 0-41.5 18.6-41.5 41.5v518.7c0 22.9 18.6 41.5 41.5 41.5h580.9c22.9 0 41.5-18.6 41.5-41.5v-518.7z" />
<glyph unicode="&#xe90a;" glyph-name="iconfont-shouqi2" d="M151.2 419.9c-6.6 6.6-9.2 15.3-8.5 23.9-0.7 8.6 2 17.4 8.5 23.9l332.4 331.8c12 11.9 31.3 11.9 43.3 0s12-31.3 0-43.2l-313-312.5 313-312.5c12-12 12-31.3 0-43.3s-31.4-12-43.3 0l-332.4 331.9zM510.3 443.8c-0.7 8.6 1.9 17.4 8.5 23.9l271.1 270.6c12 11.9 31.4 11.9 43.3 0 12-11.9 12-31.3 0-43.2l-251.7-251.3 251.7-251.3c12-11.9 12-31.3 0-43.3-12-11.9-31.4-11.9-43.3 0l-271.1 270.7c-6.6 6.5-9.2 15.3-8.5 23.9v0z" />
<glyph unicode="&#xe90b;" glyph-name="iconfont-shouqi" d="M689.3 25.5c24.1 12.5 33.5 42.2 21 66.3l-182.4 351.8 182.4 351.8c12.5 24.1 3.1 53.8-21 66.3s-53.8 3.1-66.3-21l-194-374c-3.8-7.2-5.5-15-5.5-22.6 0-0.2 0-0.3 0-0.5s0-0.3 0-0.5c0-7.6 1.8-15.4 5.5-22.6l193.9-374c12.5-24.1 42.2-33.5 66.4-21v0 0zM351.2 172c0-26.5-21.5-47.9-47.9-47.9v0c-26.5 0-47.9 21.5-47.9 47.9v543.3c0 26.5 21.5 47.9 47.9 47.9v0c26.5 0 47.9-21.5 47.9-47.9v-543.3z" />
<glyph unicode="&#xe90c;" glyph-name="lock-open-outline" d="M567.467 234.667c0-30.633-24.833-55.467-55.467-55.467-30.633 0-55.467 24.833-55.467 55.467s24.833 55.467 55.467 55.467 55.467-24.833 55.467-55.467zM768 789.333c-94.123 0-170.667-76.544-170.667-170.667v-128h-170.667v42.667h-128c-47.104 0-85.333-38.229-85.333-85.333v-298.667c0-47.104 38.229-85.333 85.333-85.333h426.667c47.104 0 85.333 38.229 85.333 85.333v298.667c0 47.104-38.229 85.333-85.333 85.333h-42.667v85.333c0 47.104 38.229 85.333 85.333 85.333s85.333-38.229 85.333-85.333v-128c0-23.552 19.115-42.667 42.667-42.667s42.667 19.115 42.667 42.667v128c0 94.123-76.544 170.667-170.667 170.667zM725.333 149.333h-426.667v298.667h426.795l-0.128-298.667z" />
<glyph unicode="&#xe90d;" glyph-name="iconfont-pingtaidanbao3" horiz-adv-x="1243" d="M1211.2 621.3c-18 29.3-49.7 46-87 46-19.3 0-40-4.3-61.8-12.9-15.1 16.2-39.8 32.5-79.4 37.5-7.2 0.9-14.2 1.3-20.9 1.3-21.8 0-40.9-4.6-57.1-13.7-2.5 1.3-5 2.5-7.6 3.6-12.1 5-25.7 7.6-40.2 7.6-33 0-72.8-13.3-118.3-39.6-23.4-13.6-47.5-24.4-71.6-32.1l-2.8-0.9-2-1.4c-7.4-3.6-40.1-8.5-66.6-10.8-3.2-0.1-6.3-0.2-9.4-0.2-15 0-25.3 1.5-30 2.4-30.1 17-56.4 38-79.7 56.7l-0.5 0.4c-36.9 29.5-80.8 60.9-135.7 60.9-19.1 0-38.7-3.9-58.2-11.6-57.7-22.6-236.2-95.5-238-96.2l-41.4-16.9 168.4-363 39 18.7c2.4 1.2 59.8 28.7 83.2 41.6 4.3 2.4 6.8 3.8 12.5 3.8 12.6 0 39.9-7.5 98.6-43.3 82.9-50.6 106.7-60.6 131.9-71.2 7.4-3.1 13.7-5.8 21.4-9.4 17.9-8.4 42.2-12.8 70.2-12.8 49.6 0 122.4 14.5 177.6 55l64.5 47.1c11.5 7.7 289.5 192.8 320.5 221 44.1 39.8 50.7 83.1 20.4 132.4zM775.5 573.6c2.1 1.2 4.3 2.4 6.4 3.6 42.1 24.4 65.2 28.1 75.2 28.1 4.2 0 6.5-0.6 7.1-0.9 0 0 0 0 0 0l16.1-60.2c-17.7 14.4-46.4 29.4-89.5 29.4h-15.3zM790.8 487.9c28.9 0 44.5-13.5 44.5-26.2 0-4.2-1.8-8-5.2-10.9l-0.1-0.1c-6.2-5.4-17.3-8.6-30.7-8.6-10.4 0.3-173.4 5-218.3 5-26.1 0-57 16.5-67.1 23.1l-15.7 11.2-37.2-55.9-10.6-16.1 16.2-10.5c9.6-6.2 60.1-37.3 114.4-37.3 18.2 0 69.6-0.8 210.5-4.9 6.5-0.2 6.5-0.2 6.8-0.2 35.4 0 65.9 10.3 88.3 30 22 19.5 34.2 46.2 34.2 75.1 0 18.1-5.1 36.1-14.4 52.1l37.5 89c0.8 0.9 5.1 5 18.4 5 3.1 0 6.5-0.2 10.1-0.7 25.1-3.1 30.7-14.4 31.6-16.6l10.4-59.4 52.9 30.9c21.8 12.7 41.9 19.7 56.6 19.7 5.1 0 11.7-0.9 14.3-5.1 5.3-8.6 6-11.6 6.1-12.5-0.3-0.9-2.1-4-11-12-16.2-14.8-172.6-121.3-311.5-213.9l-0.3-0.2-66-48.3c-38.7-28.3-91.2-38.4-127.3-38.4-17.8 0-29.3 2.4-34.1 4.7-7.9 3.7-14.6 6.5-21 9.3l-3.3 1.4c-22.2 9.4-43.3 18.3-120.7 65.4-64.5 39.4-107.2 56.2-142.9 56.2-18.7 0-35.9-4.7-54.2-14.8-10-5.5-26.6-13.8-39.8-20.3l-94 202.9c47 19.2 153 62.3 195.5 78.9 9.5 3.7 18.2 5.5 26.5 5.5 18.6 0 39.5-7.5 86.2-44.8 26.5-21.2 59.4-47.6 101.4-69.3 50.1-25.8 100.6-38.4 154.3-38.4h108.7z" />
<glyph unicode="&#xe90e;" glyph-name="iconfont-pingtaidanbao5" horiz-adv-x="1243" d="M1204.2 591.5c-17.1 32.6-47.3 51.2-82.8 51.2-18.3 0-38.1-4.8-58.8-14.4-14.4 18-37.9 36.1-75.5 41.7-6.8 1-13.5 1.5-19.9 1.5-20.7 0-38.9-5.1-54.3-15.2-2.3 1.5-4.7 2.8-7.2 4-11.5 5.6-24.4 8.4-38.2 8.4-31.4 0-69.2-14.8-112.5-44.1-22.3-15.2-45.2-27.2-68.1-35.7l-2.7-1-1.9-1.6c-7-4-38.1-9.4-63.3-12-3-0.1-6-0.2-8.9-0.2-14.2 0-24.1 1.7-28.5 2.6-28.6 18.9-53.7 42.3-75.8 63l-0.4 0.4c-35.1 32.9-76.9 67.9-129.1 67.9-18.2 0-36.8-4.3-55.3-12.8-54.9-25.2-224.7-106.3-226.4-107.1l-39.4-18.8 160.2-403.8 37.1 20.8c2.3 1.3 56.9 31.9 79.2 46.3 4 2.6 6.5 4.2 11.9 4.2 12 0 38-8.3 93.8-48.1 78.9-56.3 101.5-67.5 125.4-79.2 7-3.5 13-6.5 20.4-10.4 17-9.3 40.1-14.3 66.8-14.3 47.2 0 116.4 16.1 169 61.2l61.3 52.4c11 8.5 275.3 214.5 304.8 245.8 41.7 44.4 48 92.5 19.1 147.3zM789.9 538.4c2 1.3 4 2.7 6.1 4 40.1 27.2 62 31.2 71.5 31.2 4 0 6.1-0.7 6.8-1 0 0 0 0 0 0l15.3-67c-16.8 16.1-44.1 32.7-85.1 32.7h-14.6zM804.4 443.2c27.5 0 42.4-15 42.4-29.2 0-4.7-1.7-8.9-4.9-12.1l-0.1-0.1c-5.9-6.1-16.5-9.5-29.2-9.6-9.9 0.3-164.9 5.6-207.6 5.6-24.8 0-54.3 18.4-63.8 25.7l-15 12.5-35.3-62.2-10.1-17.9 15.4-11.6c9.1-6.9 57.2-41.4 108.8-41.4 17.4 0 66.2-0.9 200.2-5.4 6.2-0.2 6.2-0.2 6.5-0.2 33.7 0 62.7 11.5 84 33.3 21 21.7 32.5 51.4 32.5 83.6 0 20.2-4.8 40.1-13.7 57.9l35.7 99c0.7 1 4.8 5.6 17.5 5.6 3 0 6.2-0.3 9.6-0.8 23.9-3.5 29.2-16.1 30-18.5l9.9-66 50.4 34.4c20.8 14.1 39.9 21.9 53.9 21.9 4.8 0 11.1-1 13.6-5.7 5-9.5 5.7-12.9 5.8-13.9-0.3-1-2-4.4-10.4-13.4-15.4-16.4-164.2-134.9-296.3-238l-0.3-0.3-62.8-53.7c-36.8-31.5-86.7-42.7-121.1-42.7-16.9 0-27.8 2.7-32.4 5.2-7.5 4.1-13.8 7.3-19.9 10.3l-3.2 1.6c-21.2 10.4-41.1 20.3-114.8 72.8-61.3 43.8-102 62.5-135.9 62.5-17.8 0-34.2-5.2-51.6-16.5-9.5-6.1-25.3-15.4-37.8-22.6l-89.5 225.7c44.7 21.3 145.5 69.3 185.9 87.7 9 4.1 17.3 6.1 25.2 6.1 17.7 0 37.6-8.3 82-49.8 25.2-23.6 56.5-53 96.5-77.1 47.7-28.7 95.7-42.7 146.7-42.7h103.2z" />
<glyph unicode="&#xe90f;" glyph-name="iconfont-jiahao1" d="M763.903 495.413h-205.681v205.673c0 16.954-13.746 30.699-30.7 30.699-16.956 0-30.7-13.745-30.7-30.699v-205.673h-205.683c-16.955 0-30.7-13.745-30.7-30.699s13.746-30.699 30.7-30.699h205.682v-205.672c0-16.954 13.746-30.699 30.7-30.699s30.7 13.745 30.7 30.699v205.672h205.681c16.955 0 30.7 13.745 30.7 30.699s-13.745 30.699-30.699 30.699z" />
<glyph unicode="&#xe910;" glyph-name="lock-open-outline2" d="M567.467 234.667c0-30.633-24.833-55.467-55.467-55.467-30.633 0-55.467 24.833-55.467 55.467s24.833 55.467 55.467 55.467 55.467-24.833 55.467-55.467zM768 789.333c-94.123 0-170.667-76.544-170.667-170.667v-128h-170.667v42.667h-128c-47.104 0-85.333-38.229-85.333-85.333v-298.667c0-47.104 38.229-85.333 85.333-85.333h426.667c47.104 0 85.333 38.229 85.333 85.333v298.667c0 47.104-38.229 85.333-85.333 85.333h-42.667v85.333c0 47.104 38.229 85.333 85.333 85.333s85.333-38.229 85.333-85.333v-128c0-23.552 19.115-42.667 42.667-42.667s42.667 19.115 42.667 42.667v128c0 94.123-76.544 170.667-170.667 170.667zM725.333 149.333h-426.667v298.667h426.795l-0.128-298.667z" />
<glyph unicode="&#xe911;" glyph-name="iconfont-bianji" d="M830.656 610.56l-412.48-412.416-205.952 205.888 412.48 412.416 205.952-205.888zM129.536 321.344l205.952-205.888h-205.952v205.888z" />
<glyph unicode="&#xe912;" glyph-name="iconfont-biaoqian" d="M611.136-63.872c-33.28 0-64.576 12.928-88.064 36.48l-486.464 486.464c-30.592 30.528-43.008 73.984-33.28 116.096l54.080 234.24c10.624 46.144 47.296 82.752 93.376 93.376l234.24 54.080c41.6 9.536 85.888-3.072 116.096-33.28l486.464-486.464c23.552-23.552 36.48-54.784 36.48-88.064s-12.992-64.576-36.48-88.064l-288.256-288.256c-23.552-23.552-54.784-36.48-88.128-36.48zM412.992 914.688c-6.016 0-12.032-0.704-17.856-2.048l-234.24-54.080c-29.312-6.72-52.672-30.016-59.392-59.392l-54.080-234.24c-6.208-26.816 1.728-54.4 21.184-73.856l486.464-486.464c30.016-29.952 82.176-29.952 112.128 0l288.256 288.256c14.976 14.976 23.232 34.88 23.232 56.064s-8.256 41.088-23.232 56.064l-486.464 486.464c-14.976 14.976-34.88 23.168-56 23.168zM304.832 556.16v0c-26.432 0-51.328 10.304-70.080 29.056-38.656 38.656-38.656 101.504 0 140.16 18.688 18.688 43.584 28.992 70.080 28.992s51.328-10.304 70.080-28.992c18.752-18.752 29.056-43.584 29.056-70.080s-10.304-51.328-29.056-70.080c-18.688-18.752-43.584-29.056-70.080-29.056zM304.832 709.056c-14.4 0-27.904-5.568-38.016-15.744-20.992-20.992-20.992-55.104 0-76.096 20.352-20.352 55.744-20.288 76.096 0 10.176 10.176 15.744 23.68 15.744 38.016s-5.568 27.84-15.744 38.016c-10.176 10.176-23.68 15.744-38.016 15.744z" />
<glyph unicode="&#xe913;" glyph-name="iconfont-fenxiang" d="M28.864 454.848c0 0 0 118.976 119.488 162.496 0 0 104 42.752 191.68-43.52l292.864 151.104c0 0-18.496 143.232 125.504 198.080 0 0 153.856 46.976 221.632-105.408 0 0 57.024-128.32-64.896-216.64 0 0-108.992-81.984-226.624 17.856l-299.264-153.28c0 0 2.752-20.032 0-39.872l298.88-148.608c0 0 101.504 101.568 232.64 14.656 0 0 132.032-100.48 44.224-242.304 0 0-88.384-138.24-244.48-58.432 0 0-97.472 47.744-87.616 179.712l-296.448 148.032c0 0-67.712-75.584-185.344-41.344 0 0-122.24 35.968-122.24 177.472z" />
<glyph unicode="&#xe914;" glyph-name="iconfont-icon08" d="M191.36 766.656h254.784v-254.784h-254.784v254.784zM191.36 384.448h254.784v-254.784h-254.784v254.784zM573.568 766.656h254.784v-254.784h-254.784v254.784zM573.568 384.448h254.784v-254.784h-254.784v254.784z" />
<glyph unicode="&#xe915;" glyph-name="iconfont-iconfonttupian" d="M875.712 839.744h-727.424c-46.4 0-83.968-37.568-83.968-83.968v-615.488c0-46.4 37.568-83.968 83.968-83.968h727.424c46.4 0 83.968 37.568 83.968 83.968v615.488c0 46.4-37.568 83.968-83.968 83.968v0zM148.288 783.744h727.424c15.488 0 27.968-12.544 27.968-27.968v-329.536c-45.12 36.992-123.264 86.912-217.024 86.912-86.464 0-171.712-67.008-254.144-131.776-63.168-49.664-128.448-100.992-174.336-100.992-64.256 0-119.296 47.232-137.984 65.28v410.176c0 15.424 12.544 27.968 27.968 27.968v0zM875.712 112.256h-727.424c-15.488 0-27.968 12.544-27.968 27.968v132.8c33.536-23.744 82.048-48.704 137.984-48.704 65.216 0 134.976 54.848 208.896 112.96 74.944 58.88 152.448 119.808 219.52 119.808 120.256 0 215.68-105.856 216.576-106.944l0.448 0.384v-210.368c0-15.488-12.544-27.968-27.968-27.968v0zM343.808 447.68c61.888 0 112.064 50.176 112.064 112.064s-50.176 112.064-112.064 112.064c-61.888 0-112.064-50.176-112.064-112.064s50.176-112.064 112.064-112.064v0zM344.256 615.872c30.784 0 55.808-24.96 55.808-55.808s-24.96-55.808-55.808-55.808c-30.848 0-55.808 24.96-55.808 55.808s24.96 55.808 55.808 55.808v0z" />
<glyph unicode="&#xe916;" glyph-name="iconfont-link" d="M481.728 626.56c-13.184-13.184-35.136-13.184-48.768 0-13.12 13.376-13.12 35.136 0 48.512l145.344 145.664c43.456 42.944 100.48 64.576 157.12 64.576 122.432 0 220.928-99.072 220.928-221.696 0-56.576-21.44-113.664-64.384-156.608l-158.4-158.464c-42.944-41.92-99.072-62.912-155.2-62.912-78.464 0-150.208 41.664-189.76 107.776v0.32c-9.728 15.872-17.088 32.896-22.464 49.984-5.312 18.048 4.992 37.376 22.912 42.752 18.624 5.312 37.632-4.864 42.88-23.168 3.52-11.968 8.768-23.68 15.168-34.624 27.392-45.888 77.632-74.688 131.264-74.688 39.040 0 77.568 14.656 107.264 43.456l158.144 158.208c29.696 29.824 44.416 69.056 44.416 108.096 0 84.864-67.904 152.704-152.704 152.704-39.040 0-78.464-14.656-107.84-44.416h-0.448l-145.344-145.344zM538.816 250.944v0l-145.344-145.6c-59.008-59.072-157.568-59.328-216.512-0.256v0 0.256c-59.072 59.008-59.072 157.312 0 216.256l156.48 157.12c29.824 29.248 68.8 44.16 108.352 44.16s78.464-14.912 108.288-44.16v-0.448c9.28-9.024 16.576-19.072 22.912-29.824 6.784-10.752 11.648-22.4 15.168-34.112 5.312-18.56 24.384-28.8 42.368-23.424 18.048 5.376 28.864 24.384 23.488 42.688-5.44 17.536-12.8 34.368-21.44 49.984-9.856 15.616-20.992 30.272-33.664 43.456-43.456 42.944-100.032 64.576-157.12 64.576s-113.6-21.632-157.12-64.576l-156.544-156.864c-85.376-85.568-85.376-227.776 0-313.856l2.368-1.792c85.824-83.648 225.472-82.88 310.784 1.216v0.512l0.448 0.448 145.792 145.344c13.184 13.632 13.184 35.136-0.448 48.768-13.184 13.184-35.136 13.184-48.32 0v0z" />
<glyph unicode="&#xe917;" glyph-name="iconfont-list" d="M63.808 768.064h127.040v-127.744h-127.040v127.744zM276.352 768.064h682.112v-127.744h-682.112v127.744zM63.808 512.32h127.040v-127.744h-127.040v127.744zM276.352 512.32h682.112v-127.744h-682.112v127.744zM63.808 256.512h127.040v-127.744h-127.040v127.744zM276.352 256.512h682.112v-127.744h-682.112v127.744z" />
<glyph unicode="&#xe918;" glyph-name="iconfont-liulan-copy" d="M995.2 444.8c-83.2 195.2-272 320-486.4 320s-403.2-124.8-483.2-320v-6.4c80-195.2 272-323.2 486.4-323.2s403.2 128 486.4 323.2v6.4h-3.2zM928 441.6l-6.4-9.6c-76.8-153.6-240-252.8-412.8-252.8s-336 99.2-412.8 252.8l-6.4 9.6 6.4 9.6c76.8 153.6 240 252.8 412.8 252.8s336-99.2 412.8-252.8l6.4-9.6zM508.8 614.4c-96 0-172.8-76.8-172.8-172.8s76.8-172.8 172.8-172.8 172.8 76.8 172.8 172.8c0 44.8-19.2 89.6-51.2 121.6s-73.6 51.2-121.6 51.2zM620.8 441.6c0-60.8-51.2-112-112-112s-112 51.2-112 112 51.2 112 112 112c60.8-3.2 112-51.2 112-112z" />
<glyph unicode="&#xe919;" glyph-name="iconfont-paixu" d="M564.224 915.968q43.008 0 58.368-20.48t15.36-65.536q0-20.48 0.512-64.512t0.512-93.696 0.512-96.768 0.512-74.752q0-38.912 7.68-61.952t35.328-22.016q19.456 0 48.128-1.024t49.152-1.024q35.84 0 45.568-18.944t-13.824-49.664q-24.576-30.72-57.344-72.704t-68.096-86.016-69.12-86.528-59.392-75.264q-23.552-29.696-45.568-30.72t-45.568 27.648q-24.576 29.696-57.344 69.632t-67.072 82.432-67.584 83.968-59.904 74.24q-29.696 35.84-22.528 58.88t44.032 23.040h24.576q14.336 0 29.696 0.512t30.208 1.536 26.112 1.024q26.624 0 32.768 15.36t6.144 41.984q0 29.696-0.512 77.824t-0.512 100.352-0.512 101.376-0.512 79.872q0 13.312 2.048 27.648t9.728 26.112 20.992 19.456 36.864 7.68q27.648 0 53.248 0.512t57.344 0.512z" />
<glyph unicode="&#xe91a;" glyph-name="iconfont-paixunxiangshang" d="M828.032 529.408l-304.576 360.32c-6.272 7.424-16.512 7.424-22.784 0l-304.576-360.32c-6.272-7.424-3.392-13.504 6.4-13.504h178.688v-497.6c0-9.6 8-17.472 17.792-17.472h226.176c9.792 0 17.792 7.872 17.792 17.472v497.6h178.688c9.792 0 12.672 6.080 6.4 13.504z" />
<glyph unicode="&#xe91b;" glyph-name="iconfont-pinglunshu23" d="M823.296 729.984h-623.808c-39.616 0-72-32.448-72-72.128v-467.648c0-39.68 32.384-60.096 72-60.096h287.872c39.616 0 94.912-29.568 122.88-57.6l42.176-44.992c10.88-10.88 20.992-17.472 29.248-17.472 13.056 0 21.632 17.728 21.632 41.984 0 39.68 32.384 78.016 72 78.016h48c39.616 0 72 20.416 72 60.096v467.648c0 39.68-32.384 72.128-72 72.128zM847.296 190.208c0-13.056-11.008-13.184-24-13.184h-48c-52.928 0-97.984-40-113.856-87.744l-17.216 19.968c-36.992 37.12-104.448 67.776-156.8 67.776h-287.872c-12.992 0-24 0.192-24 13.184v467.648c0 13.056 11.008 24.064 24 24.064h623.808c12.992 0 24-11.008 24-24.064v-467.648zM295.488 513.6h239.936c13.248 0 24 10.752 24 24.064s-10.752 24.064-24 24.064h-239.936c-13.248 0-24-10.752-24-24.064s10.752-24.064 24-24.064zM703.36 441.472h-407.872c-13.248 0-24-10.752-24-24.064s10.752-24.064 24-24.064h407.872c13.248 0 24 10.752 24 24.064s-10.752 24.064-24 24.064zM703.36 345.28h-407.872c-13.248 0-24-10.752-24-24.064s10.752-24.064 24-24.064h407.872c13.248 0 24 10.752 24 24.064s-10.752 24.064-24 24.064z" />
<glyph unicode="&#xe91c;" glyph-name="iconfont-sanjiaoxing" d="M191.808 576h640.384l-320.192-384z" />
<glyph unicode="&#xe91d;" glyph-name="iconfont-sczhuanfa" d="M944.64 478.080l-350.144 302.4c0 0-37.632 24.96-51.904-19.008l-0.384-138.88c0 0-435.776-57.664-474.496-492.544 0 0 4.864-34.816 32.064-15.936s261.76 162.304 442.432 162.56v-124.032c0 0 4.672-45.952 51.456-24.576l350.144 302.528c0 0 27.648 24.32 0.896 47.488zM605.696 222.336v123.136c-266.624 6.016-459.456-127.232-459.456-127.232 105.92 340.8 459.456 348.48 459.456 348.48v120.128l268.928-232.32-268.928-232.256z" />
<glyph unicode="&#xe91e;" glyph-name="iconfont-shanchu" d="M210.496 719.68v-585.152c0-69.248 56.128-125.376 125.376-125.376h376.192c69.248 0 125.376 56.128 125.376 125.376v585.152h-626.944zM377.792 140.928c0-15.232-9.408-27.52-20.992-27.52h-20.992c-11.584 0-20.992 12.288-20.992 27.52v467.904c0 14.656 8.768 26.368 19.776 27.2h23.296c11.008-0.832 19.776-12.544 19.776-27.2v-467.904zM565.888 140.928c0-15.232-9.408-27.52-20.992-27.52h-41.984c-11.584 0-20.992 12.288-20.992 27.52v467.904c0 14.656 8.768 26.368 19.776 27.2h44.288c11.008-0.832 19.776-12.544 19.776-27.2v-467.904zM732.992 608.832v-467.968c0-15.232-9.408-27.52-20.992-27.52h-20.992c-11.584 0-20.992 12.288-20.992 27.52v467.968c0 14.656 8.768 26.368 19.776 27.2h23.296c11.008-0.832 19.84-12.544 19.84-27.2zM837.44 886.848h-626.944c-23.040 0-41.792-18.752-41.792-41.792v-20.928c0-23.104 18.752-41.792 41.792-41.792h626.944c23.040 0 41.792 18.688 41.792 41.792v20.928c0 23.040-18.688 41.792-41.792 41.792z" />
<glyph unicode="&#xe91f;" glyph-name="iconfont-shangchuan" d="M481.024 522.88h64v-490.88h-64v490.88zM491.648 543.552l45.632-44.928-129.344-131.2-45.632 44.928 129.344 131.2zM515.904 565.12l147.776-149.952-45.632-44.928-147.776 149.952 45.632 44.928zM353.216 207.552h-157.12c-17.664 0-32 14.272-32 32s14.336 32 32 32h157.12c17.664 0 32-14.272 32-32s-14.336-32-32-32zM845.12 207.552h-172.864c-17.728 0-32 14.272-32 32s14.272 32 32 32h172.864c17.728 0 32-14.272 32-32s-14.272-32-32-32zM195.968 207.552c-42.688 0-85.056 17.536-120.64 50.112-46.464 42.624-75.328 106.112-75.328 165.568 0 83.072 52.096 160.064 132.8 196.16 16.128 7.296 35.072 0 42.24-16.128s0-35.072-16.128-42.24c-57.664-25.856-94.912-79.872-94.912-137.728 0-41.472 21.44-88 54.656-118.464 25.856-23.68 56.128-35.456 85.056-32.896 17.728 1.856 33.088-11.52 34.624-29.184s-11.52-33.088-29.184-34.56c-4.416-0.32-8.896-0.512-13.312-0.512zM150.4 558.272c-0.96 0-1.92 0-2.944 0.128-17.6 1.6-30.592 17.152-28.992 34.752 6.656 73.536 75.072 133.376 152.448 133.376 0 0 0.064 0 0.128 0 29.12 0 57.344-8.576 81.472-24.768 14.656-9.856 18.56-29.76 8.704-44.416s-29.824-18.56-44.416-8.704c-13.568 9.088-29.376 13.952-45.76 13.952 0 0 0 0-0.064 0-44.416 0-85.056-34.432-88.704-75.2-1.536-16.64-15.488-29.12-31.872-29.12zM787.328 540.736c-2.368 0-4.8 0.256-7.232 0.832-17.28 3.968-28.032 21.12-24.064 38.336 2.816 12.16 4.224 24.832 4.224 37.568 0 99.776-87.296 181.056-194.56 181.056-90.112 0-167.872-56.832-189.12-138.176-4.48-17.088-21.952-27.328-39.040-22.848s-27.328 21.952-22.848 39.040c28.608 109.568 131.776 185.984 251.072 185.984 142.592 0 258.56-109.888 258.56-245.056 0-17.536-1.984-35.008-5.824-51.904-3.392-14.784-16.576-24.832-31.168-24.832zM832.896 207.488c-17.728 0-32 14.272-32 32s14.272 32 32 32c71.616 0 129.92 61.056 129.92 136.128s-58.304 136.128-129.92 136.128c-12.672 0-25.152-1.856-37.12-5.632-16.768-5.248-34.816 4.16-40.064 21.056s4.224 34.816 21.056 40.064c18.112 5.632 36.992 8.512 56.128 8.512 106.944 0 193.92-89.792 193.92-200.128s-87.040-200.128-193.92-200.128z" />
<glyph unicode="&#xe920;" glyph-name="iconfont-tubiao43" d="M805.824 800.192h-589.568c-39.104 0-70.784-31.68-70.784-70.72v-406.592c0-39.104 31.68-70.784 70.784-70.784h589.568c39.040 0 72.64 31.68 72.64 70.784v406.592c0 39.104-33.6 70.72-72.64 70.72v0zM831.36 421.696c0-26.048-21.12-47.168-47.168-47.168h-546.24c-26.048 0-47.168 21.12-47.168 47.168v286.080c0 26.048 21.12 47.168 47.168 47.168h546.24c26.048 0 47.168-21.12 47.168-47.168v-286.080zM617.088 144.448v71.68l-212.224-0.512v-73.088l-45.184-23.104c0 0-9.792-23.552 15.744-23.552h265.344c0 0 31.424 9.856 21.632 19.648s-45.248 28.992-45.248 28.992v0zM704.96 657.664c0.448 2.24 0.64 4.544 0.704 6.784s-0.064 4.48-0.32 6.656c-0.064 0.768-0.192 1.472-0.32 2.176-0.512 3.136-1.408 6.208-2.56 9.088-0.064 0.192-0.192 0.384-0.256 0.576-0.192 0.512-0.448 1.024-0.64 1.472-0.064 0.128-0.128 0.256-0.192 0.384-0.576 1.216-1.216 2.432-1.856 3.584l-0.064 0.064c-1.472 2.496-3.136 4.8-5.056 6.976-0.384 0.448-0.832 0.896-1.216 1.344s-0.896 0.896-1.344 1.344c-0.256 0.256-0.512 0.448-0.704 0.704-0.384 0.32-0.704 0.64-1.024 0.96-0.192 0.128-0.384 0.32-0.576 0.512-0.384 0.32-0.768 0.64-1.152 0.896-0.704 0.576-1.472 1.152-2.304 1.664-0.448 0.32-0.896 0.64-1.344 0.896-0.704 0.448-1.408 0.896-2.176 1.28-0.96 0.576-1.984 1.024-2.944 1.536-1.664 0.768-3.456 1.472-5.248 2.048-1.088 0.32-2.176 0.64-3.328 0.896s-2.24 0.512-3.392 0.64c-1.856 0.32-3.776 0.448-5.632 0.512-1.088 0.064-2.24 0-3.328-0.064-0.832 0-1.664-0.128-2.496-0.192-0.512-0.064-1.088-0.128-1.6-0.192-0.96-0.128-1.856-0.256-2.816-0.512-0.512-0.128-0.96-0.192-1.472-0.32-0.256-0.064-0.448-0.128-0.704-0.192-0.448-0.128-0.896-0.256-1.344-0.384-0.32-0.128-0.64-0.192-0.96-0.32-0.576-0.192-1.216-0.384-1.792-0.64s-1.088-0.448-1.664-0.64c-2.688-1.088-5.248-2.432-7.616-3.968l-0.064-0.064c-1.088-0.768-2.176-1.536-3.264-2.368-0.128-0.064-0.256-0.192-0.384-0.256-0.384-0.32-0.832-0.64-1.28-1.024-0.128-0.128-0.32-0.256-0.448-0.384-2.304-2.112-4.48-4.416-6.336-6.976-0.448-0.576-0.832-1.216-1.28-1.792-1.216-1.856-2.304-3.776-3.264-5.824s-1.728-4.16-2.368-6.4c-0.192-0.768-0.448-1.472-0.576-2.24-0.256-1.152-0.512-2.24-0.64-3.392-0.32-1.856-0.448-3.776-0.512-5.632-0.064-1.088 0-2.24 0.064-3.328 0.32-6.272 1.92-12.352 4.608-17.856 0.192-0.32 0.32-0.64 0.512-0.96 0.96-1.856 2.112-3.648 3.328-5.376l-57.024-90.624c-0.96 0.32-1.984 0.576-2.944 0.768-4.8 1.152-9.6 1.408-14.272 1.024-0.192 0-0.448-0.064-0.64-0.064-0.512-0.064-1.088-0.128-1.6-0.192-0.832-0.128-1.664-0.256-2.496-0.448l-39.296 64.192c1.152 1.6 2.24 3.264 3.2 4.992 0.576 0.96 1.024 1.984 1.536 2.944 0.768 1.664 1.472 3.456 2.048 5.248 0.32 1.088 0.64 2.176 0.896 3.328 0.192 0.768 0.32 1.536 0.448 2.304 0.448 2.24 0.64 4.544 0.704 6.784 0.32 11.584-3.904 22.592-11.264 31.040-0.256 0.256-0.512 0.576-0.704 0.832-1.728 1.856-3.584 3.584-5.632 5.12-0.576 0.448-1.152 0.896-1.728 1.28s-1.216 0.832-1.856 1.216c-4.096 2.56-8.576 4.416-13.568 5.568-1.152 0.256-2.24 0.512-3.392 0.64-1.856 0.32-3.776 0.448-5.632 0.512-1.088 0.064-2.24 0-3.328-0.064-0.832 0-1.664-0.128-2.496-0.192-0.512-0.064-1.088-0.128-1.6-0.192-0.96-0.128-1.856-0.256-2.816-0.512-0.512-0.128-0.96-0.192-1.472-0.32-0.256-0.064-0.448-0.128-0.704-0.192-0.448-0.128-0.896-0.256-1.344-0.384-0.32-0.128-0.64-0.192-0.96-0.32-0.576-0.192-1.216-0.384-1.792-0.64s-1.088-0.448-1.664-0.64c-2.688-1.088-5.248-2.432-7.616-3.968l-0.064-0.064c-1.088-0.768-2.176-1.536-3.264-2.368-0.128-0.064-0.256-0.192-0.384-0.256-0.384-0.32-0.832-0.64-1.28-1.024-0.128-0.128-0.32-0.256-0.448-0.384-2.304-2.112-4.48-4.416-6.336-6.976-0.448-0.576-0.832-1.216-1.28-1.792-1.216-1.856-2.304-3.776-3.264-5.824s-1.728-4.16-2.368-6.4c-0.192-0.768-0.448-1.472-0.576-2.24-0.256-1.152-0.512-2.24-0.64-3.392-0.32-1.856-0.448-3.776-0.512-5.632-0.064-1.088 0-2.24 0.064-3.328 0.32-6.272 1.92-12.352 4.608-17.856 0.192-0.32 0.32-0.64 0.512-0.96s0.32-0.576 0.448-0.832l-59.456-93.888c-4.032 0.704-8.064 0.896-12.032 0.576-0.192 0-0.448-0.064-0.64-0.064-0.512-0.064-1.088-0.128-1.6-0.192-0.96-0.128-1.856-0.256-2.816-0.512-1.152-0.256-2.368-0.512-3.52-0.896-0.32-0.128-0.64-0.192-0.96-0.32-0.576-0.192-1.216-0.384-1.792-0.64s-1.088-0.448-1.664-0.64c-0.704-0.256-1.344-0.576-1.984-0.896-0.32-0.128-0.64-0.32-0.96-0.448-0.96-0.512-1.92-1.024-2.88-1.536-0.32-0.192-0.64-0.384-0.896-0.512-0.576-0.384-1.216-0.768-1.792-1.152s-1.152-0.832-1.728-1.28-2.24-1.792-3.328-2.816-4.096-4.16-5.76-6.464c-0.448-0.576-0.832-1.216-1.28-1.792s-0.768-1.216-1.152-1.856-1.408-2.56-2.112-3.968c-0.64-1.344-1.216-2.752-1.664-4.224s-0.96-2.944-1.28-4.416v0 0c-5.632-24.192 9.344-48.384 33.6-54.080s48.448 9.344 54.080 33.6v0 0c0.384 1.536 0.64 3.008 0.832 4.544s0.32 3.008 0.384 4.48c0.064 1.472 0 3.008-0.128 4.48-0.064 0.704-0.128 1.472-0.192 2.176s-0.192 1.472-0.32 2.176c-0.448 2.88-1.28 5.696-2.304 8.384-0.512 1.344-1.088 2.688-1.728 3.968-0.32 0.64-0.64 1.28-1.024 1.92s-0.704 1.28-1.088 1.856c-0.192 0.32-0.384 0.576-0.576 0.896-0.32 0.576-0.704 1.088-1.088 1.6l57.216 90.624c0.896-0.256 1.792-0.512 2.688-0.704 5.312-1.216 10.56-1.472 15.68-0.832 0.64 0.064 1.216 0.192 1.856 0.256l39.68-65.088c-0.256-0.32-0.448-0.64-0.64-1.024-0.384-0.64-0.768-1.216-1.152-1.856-0.704-1.28-1.408-2.56-2.048-3.968s-1.216-2.752-1.664-4.224c-0.512-1.472-0.96-2.944-1.28-4.416v0 0c-5.632-24.192 9.344-48.384 33.6-54.080s48.384 9.344 54.080 33.6v0 0c0.32 1.536 0.64 3.008 0.832 4.544s0.32 3.008 0.384 4.48c0.064 1.472 0 3.008-0.128 4.48-0.064 0.704-0.128 1.472-0.192 2.176s-0.192 1.472-0.32 2.176c-0.448 2.88-1.28 5.696-2.304 8.384-0.512 1.344-1.088 2.688-1.728 3.968-0.256 0.512-0.512 1.024-0.768 1.536l59.264 94.144c0.384-0.064 0.704-0.128 1.088-0.192 1.856-0.32 3.776-0.448 5.632-0.512 1.088-0.064 2.24 0 3.328 0.064 6.272 0.32 12.352 1.92 17.856 4.672 0.32 0.192 0.64 0.32 0.96 0.512 1.92 1.024 3.776 2.176 5.504 3.392 0.32 0.192 0.576 0.448 0.896 0.64 4.864 3.712 9.024 8.448 12.096 13.952 0.576 0.96 1.024 1.984 1.536 2.944 0.768 1.664 1.472 3.456 2.048 5.248 0.32 1.088 0.64 2.176 0.896 3.328 0.192 0.768 0.384 1.536 0.512 2.304v0z" />
<glyph unicode="&#xe921;" glyph-name="iconfont-wendang" d="M848.512-43.2h-675.392c-50.752 0-92.096 41.344-92.096 92.096v798.208c0 50.752 41.344 92.096 92.096 92.096h675.392c50.752 0 92.096-41.344 92.096-92.096v-798.208c0-50.752-41.344-92.096-92.096-92.096zM173.12 877.76c-16.896 0-30.72-13.76-30.72-30.72v-798.208c0-16.896 13.76-30.72 30.72-30.72h675.392c16.896 0 30.72 13.76 30.72 30.72v798.208c0 16.896-13.76 30.72-30.72 30.72h-675.392zM293.12 732.416h435.392v-35.2h-435.392v35.2zM743.872 681.856h-466.048v65.92h466.048v-65.92zM308.48 712.576h404.672v4.544h-404.672v-4.544zM293.12 591.616h435.392v-35.2h-435.392v35.2zM743.872 541.056h-466.048v65.92h466.048v-65.92zM308.48 571.712h404.672v4.544h-404.672v-4.544zM293.12 450.752h435.392v-35.2h-435.392v35.2zM743.872 400.192h-466.048v65.92h466.048v-65.92zM308.48 430.912h404.672v4.48h-404.672v-4.48z" />
<glyph unicode="&#xe922;" glyph-name="iconfont-xiaolian" d="M885.184 194.432v0zM817.408 752.192c-168.384 168.448-442.432 168.448-610.816 0s-168.448-442.432 0-610.816c168.384-168.448 442.432-168.448 610.816 0s168.448 442.432 0 610.816zM773.568 185.216c-144.256-144.256-378.944-144.192-523.2 0s-144.256 378.944 0 523.2c144.192 144.192 378.944 144.256 523.2 0s144.256-378.944 0-523.2zM377.28 492.288c25.664 0 46.464 20.864 46.464 46.528s-20.864 46.592-46.464 46.592c-25.728 0-46.592-20.864-46.592-46.592s20.864-46.528 46.592-46.528zM645.12 492.224c25.664 0 46.528 20.928 46.528 46.592s-20.864 46.528-46.528 46.528c-25.664 0-46.528-20.864-46.528-46.528s20.864-46.592 46.528-46.592zM646.72 336.064l-2.56-0.832c-41.664-18.88-86.4-28.48-132.8-28.48-47.936 0-93.248 9.728-134.784 28.736l-2.496 0.768c-1.536 0.448-3.648 1.024-6.272 1.024-15.232 0-27.648-12.416-27.648-27.584 0-7.232 3.392-14.464 9.024-19.904l-0.32-1.664 7.040-3.2c49.536-22.4 103.488-34.24 155.84-34.24 53.376 0 105.664 11.52 156.16 34.496 8.896 4.864 14.4 14.208 14.4 24.32 0 17.856-16.128 32.512-35.52 26.496z" />
<glyph unicode="&#xe923;" glyph-name="iconfont-xiazai1" d="M564.736 485.44h-107.648c-15.040 0-27.2 12.16-27.2 27.2v324.032c0 17.984 12.928 29.888 29.696 29.888h101.12c15.232 0 31.232-14.592 31.232-28.16v-325.76c0-15.040-12.16-27.2-27.2-27.2v0zM748.48 511.424c-72.32-77.76-142.336-166.72-219.136-245.952-9.6-9.856-15.872-8.832-18.24-7.872 0.704 0.256 1.216 0.576 1.216 0.576h-2.304c0 0 0.384-0.256 1.088-0.576-2.624-1.088-9.6-2.368-18.944 7.872-91.776 100.736-150.528 172.736-218.816 245.952-27.904 29.824 23.616 28.352 29.312 28.352 70.784 0 192 0.064 192 0.064h3.392c0 0 152.064-0.064 222.848-0.064 5.696 0 55.424 1.536 27.584-28.352v0zM117.824 53.696h-26.368c-15.040 0-27.2 12.16-27.2 27.2v186.944c0 17.984 12.928 29.824 29.696 29.824h19.904c15.232 0 31.232-14.592 31.232-28.16v-188.608c0-15.040-12.224-27.2-27.2-27.2v0zM931.136 52.672h-836.992c-17.984 0-29.888 12.928-29.888 29.696v19.904c0 15.296 14.592 31.232 28.16 31.232h838.72c15.040 0 27.264-12.224 27.264-27.264v-26.368c0-15.040-12.224-27.2-27.264-27.2v0zM930.432 53.696h-26.368c-15.040 0-27.264 12.16-27.264 27.2v186.944c0 17.984 12.864 29.824 29.696 29.824h19.904c15.232 0 31.232-14.592 31.232-28.16v-188.608c0-15.040-12.224-27.2-27.264-27.2v0z" />
<glyph unicode="&#xe924;" glyph-name="file-empty" d="M917.806 730.924c-22.212 30.292-53.174 65.7-87.178 99.704s-69.412 64.964-99.704 87.178c-51.574 37.82-76.592 42.194-90.924 42.194h-496c-44.112 0-80-35.888-80-80v-864c0-44.112 35.888-80 80-80h736c44.112 0 80 35.888 80 80v624c0 14.332-4.372 39.35-42.194 90.924zM785.374 785.374c30.7-30.7 54.8-58.398 72.58-81.374h-153.954v153.946c22.984-17.78 50.678-41.878 81.374-72.572zM896 16c0-8.672-7.328-16-16-16h-736c-8.672 0-16 7.328-16 16v864c0 8.672 7.328 16 16 16 0 0 495.956 0.002 496 0v-224c0-17.672 14.326-32 32-32h224v-624z" />
<glyph unicode="&#xe925;" glyph-name="files-empty" d="M917.806 602.924c-22.21 30.292-53.174 65.7-87.178 99.704s-69.412 64.964-99.704 87.178c-51.574 37.82-76.592 42.194-90.924 42.194h-368c-44.114 0-80-35.888-80-80v-736c0-44.112 35.886-80 80-80h608c44.112 0 80 35.888 80 80v496c0 14.332-4.372 39.35-42.194 90.924zM785.374 657.374c30.7-30.7 54.8-58.398 72.58-81.374h-153.954v153.946c22.982-17.78 50.678-41.878 81.374-72.572v0zM896 16c0-8.672-7.328-16-16-16h-608c-8.672 0-16 7.328-16 16v736c0 8.672 7.328 16 16 16 0 0 367.956 0.002 368 0v-224c0-17.672 14.324-32 32-32h224v-496zM602.924 917.804c-51.574 37.822-76.592 42.196-90.924 42.196h-368c-44.112 0-80-35.888-80-80v-736c0-38.632 27.528-70.958 64-78.39v814.39c0 8.672 7.328 16 16 16h486.876c-9.646 7.92-19.028 15.26-27.952 21.804z" />
</font>
</defs>
</svg>
