<?xml version="1.0" encoding="utf-8"?>
<!-- Generator: Adobe Illustrator 18.0.0, SVG Export Plug-In . SVG Version: 6.00 Build 0)  -->
<!DOCTYPE svg PUBLIC "-//W3C//DTD SVG 1.1//EN" "http://www.w3.org/Graphics/SVG/1.1/DTD/svg11.dtd">
<svg version="1.1" id="图层_1" xmlns="http://www.w3.org/2000/svg" xmlns:xlink="http://www.w3.org/1999/xlink" x="0px" y="0px"
	 viewBox="0 0 32 32" enable-background="new 0 0 32 32" xml:space="preserve">
<title>add-to-list</title>
<g>
	<path fill="#F2790A" d="M72.9,27.2c1.5-0.9,3.1-1.6,4.8-1.9c4.4-0.9,8.9,0.5,12.2,3.5c2.1,2,3.6,4.6,4.1,7.5c0.6,3.3,0,6.6-1.5,9.4
		l1.5,1.4c1.9-3.2,2.7-7.2,2-11.2c-0.6-3.3-2.3-6.3-4.7-8.6c-3.7-3.5-8.9-5-14-4c-2.2,0.4-4.2,1.3-5.9,2.5L72.9,27.2z"/>
	<path fill="#EF0C3D" d="M87.5,50.9c-1.4,0.8-2.9,1.4-4.5,1.7c-4.4,0.9-8.9-0.5-12.2-3.5c-2.1-2-3.6-4.6-4.1-7.5
		c-0.6-3.1-0.1-6.3,1.3-9.1l-1.5-1.4c-1.9,3.3-2.5,7.1-1.8,10.9c0.6,3.3,2.3,6.3,4.7,8.6c3.7,3.5,8.9,5,14,4c2.1-0.4,4-1.2,5.6-2.3
		L87.5,50.9z"/>
</g>
<g>
	<path fill="#DDEF2E" d="M16,4c5.1,0,9.5,3.2,11.2,7.8h-1.8l3.3,5.1l3.3-5.1h-1.8C28.3,5.7,22.7,1.2,16,1.2c-6,0-11.2,3.6-13.5,8.9
		L4.4,13C5.7,7.8,10.4,4,16,4z"/>
	<path fill="#32BAEA" d="M16,28c-5.1,0-9.5-3.2-11.2-7.8h1.8l-3.3-5.1L0,20.2h1.8C3.7,26.3,9.3,30.8,16,30.8c6,0,11.2-3.6,13.5-8.8
		l-1.9-2.9C26.2,24.2,21.6,28,16,28z"/>
</g>
<rect x="31.5" y="40.1" fill="#BC2515" width="1.6" height="1.1"/>
<circle fill="#DDEF2E" cx="1698.2" cy="1706.9" r="1700.8"/>
<circle fill="#DDEF2E" cx="1679.3" cy="1685.7" r="1700.8"/>
<circle fill="#DDEF2E" cx="1741.8" cy="1695.2" r="1700.8"/>
<circle fill="#DDEF2E" cx="1741" cy="1706.7" r="1700.8"/>
</svg>
